<?xml version="1.0" encoding="utf-8" standalone="no"?>
<!DOCTYPE svg PUBLIC "-//W3C//DTD SVG 1.1//EN"
  "http://www.w3.org/Graphics/SVG/1.1/DTD/svg11.dtd">
<svg xmlns:xlink="http://www.w3.org/1999/xlink" width="864pt" height="288pt" viewBox="0 0 864 288" xmlns="http://www.w3.org/2000/svg" version="1.1">
 <metadata>
  <rdf:RDF xmlns:dc="http://purl.org/dc/elements/1.1/" xmlns:cc="http://creativecommons.org/ns#" xmlns:rdf="http://www.w3.org/1999/02/22-rdf-syntax-ns#">
   <cc:Work>
    <dc:type rdf:resource="http://purl.org/dc/dcmitype/StillImage"/>
    <dc:date>2026-04-23T16:35:48.366140</dc:date>
    <dc:format>image/svg+xml</dc:format>
    <dc:creator>
     <cc:Agent>
      <dc:title>Matplotlib v3.10.6, https://matplotlib.org/</dc:title>
     </cc:Agent>
    </dc:creator>
   </cc:Work>
  </rdf:RDF>
 </metadata>
 <defs>
  <style type="text/css">*{stroke-linejoin: round; stroke-linecap: butt}</style>
 </defs>
 <g id="figure_1">
  <g id="patch_1">
   <path d="M 0 288 
L 864 288 
L 864 0 
L 0 0 
z
" style="fill: #ffffff"/>
  </g>
  <g id="axes_1">
   <g id="patch_2">
    <path d="M 62.39 246.04 
L 839.025 246.04 
L 839.025 26.88 
L 62.39 26.88 
z
" style="fill: #ffffff"/>
   </g>
   <g id="matplotlib.axis_1">
    <g id="xtick_1">
     <g id="line2d_1">
      <defs>
       <path id="m1f73060559" d="M 0 0 
L 0 3.5 
" style="stroke: #000000; stroke-width: 0.8"/>
      </defs>
      <g>
       <use xlink:href="#m1f73060559" x="62.39" y="246.04" style="stroke: #000000; stroke-width: 0.8"/>
      </g>
     </g>
     <g id="text_1">
      <!-- 0.000 -->
      <g transform="translate(48.075938 260.638438) scale(0.1 -0.1)">
       <defs>
        <path id="DejaVuSans-30" d="M 2034 4250 
Q 1547 4250 1301 3770 
Q 1056 3291 1056 2328 
Q 1056 1369 1301 889 
Q 1547 409 2034 409 
Q 2525 409 2770 889 
Q 3016 1369 3016 2328 
Q 3016 3291 2770 3770 
Q 2525 4250 2034 4250 
z
M 2034 4750 
Q 2819 4750 3233 4129 
Q 3647 3509 3647 2328 
Q 3647 1150 3233 529 
Q 2819 -91 2034 -91 
Q 1250 -91 836 529 
Q 422 1150 422 2328 
Q 422 3509 836 4129 
Q 1250 4750 2034 4750 
z
" transform="scale(0.015625)"/>
        <path id="DejaVuSans-2e" d="M 684 794 
L 1344 794 
L 1344 0 
L 684 0 
L 684 794 
z
" transform="scale(0.015625)"/>
       </defs>
       <use xlink:href="#DejaVuSans-30"/>
       <use xlink:href="#DejaVuSans-2e" transform="translate(63.623047 0)"/>
       <use xlink:href="#DejaVuSans-30" transform="translate(95.410156 0)"/>
       <use xlink:href="#DejaVuSans-30" transform="translate(159.033203 0)"/>
       <use xlink:href="#DejaVuSans-30" transform="translate(222.65625 0)"/>
      </g>
     </g>
    </g>
    <g id="xtick_2">
     <g id="line2d_2">
      <g>
       <use xlink:href="#m1f73060559" x="159.469375" y="246.04" style="stroke: #000000; stroke-width: 0.8"/>
      </g>
     </g>
     <g id="text_2">
      <!-- 0.025 -->
      <g transform="translate(145.155313 260.638438) scale(0.1 -0.1)">
       <defs>
        <path id="DejaVuSans-32" d="M 1228 531 
L 3431 531 
L 3431 0 
L 469 0 
L 469 531 
Q 828 903 1448 1529 
Q 2069 2156 2228 2338 
Q 2531 2678 2651 2914 
Q 2772 3150 2772 3378 
Q 2772 3750 2511 3984 
Q 2250 4219 1831 4219 
Q 1534 4219 1204 4116 
Q 875 4013 500 3803 
L 500 4441 
Q 881 4594 1212 4672 
Q 1544 4750 1819 4750 
Q 2544 4750 2975 4387 
Q 3406 4025 3406 3419 
Q 3406 3131 3298 2873 
Q 3191 2616 2906 2266 
Q 2828 2175 2409 1742 
Q 1991 1309 1228 531 
z
" transform="scale(0.015625)"/>
        <path id="DejaVuSans-35" d="M 691 4666 
L 3169 4666 
L 3169 4134 
L 1269 4134 
L 1269 2991 
Q 1406 3038 1543 3061 
Q 1681 3084 1819 3084 
Q 2600 3084 3056 2656 
Q 3513 2228 3513 1497 
Q 3513 744 3044 326 
Q 2575 -91 1722 -91 
Q 1428 -91 1123 -41 
Q 819 9 494 109 
L 494 744 
Q 775 591 1075 516 
Q 1375 441 1709 441 
Q 2250 441 2565 725 
Q 2881 1009 2881 1497 
Q 2881 1984 2565 2268 
Q 2250 2553 1709 2553 
Q 1456 2553 1204 2497 
Q 953 2441 691 2322 
L 691 4666 
z
" transform="scale(0.015625)"/>
       </defs>
       <use xlink:href="#DejaVuSans-30"/>
       <use xlink:href="#DejaVuSans-2e" transform="translate(63.623047 0)"/>
       <use xlink:href="#DejaVuSans-30" transform="translate(95.410156 0)"/>
       <use xlink:href="#DejaVuSans-32" transform="translate(159.033203 0)"/>
       <use xlink:href="#DejaVuSans-35" transform="translate(222.65625 0)"/>
      </g>
     </g>
    </g>
    <g id="xtick_3">
     <g id="line2d_3">
      <g>
       <use xlink:href="#m1f73060559" x="256.54875" y="246.04" style="stroke: #000000; stroke-width: 0.8"/>
      </g>
     </g>
     <g id="text_3">
      <!-- 0.050 -->
      <g transform="translate(242.234688 260.638438) scale(0.1 -0.1)">
       <use xlink:href="#DejaVuSans-30"/>
       <use xlink:href="#DejaVuSans-2e" transform="translate(63.623047 0)"/>
       <use xlink:href="#DejaVuSans-30" transform="translate(95.410156 0)"/>
       <use xlink:href="#DejaVuSans-35" transform="translate(159.033203 0)"/>
       <use xlink:href="#DejaVuSans-30" transform="translate(222.65625 0)"/>
      </g>
     </g>
    </g>
    <g id="xtick_4">
     <g id="line2d_4">
      <g>
       <use xlink:href="#m1f73060559" x="353.628125" y="246.04" style="stroke: #000000; stroke-width: 0.8"/>
      </g>
     </g>
     <g id="text_4">
      <!-- 0.075 -->
      <g transform="translate(339.314063 260.638438) scale(0.1 -0.1)">
       <defs>
        <path id="DejaVuSans-37" d="M 525 4666 
L 3525 4666 
L 3525 4397 
L 1831 0 
L 1172 0 
L 2766 4134 
L 525 4134 
L 525 4666 
z
" transform="scale(0.015625)"/>
       </defs>
       <use xlink:href="#DejaVuSans-30"/>
       <use xlink:href="#DejaVuSans-2e" transform="translate(63.623047 0)"/>
       <use xlink:href="#DejaVuSans-30" transform="translate(95.410156 0)"/>
       <use xlink:href="#DejaVuSans-37" transform="translate(159.033203 0)"/>
       <use xlink:href="#DejaVuSans-35" transform="translate(222.65625 0)"/>
      </g>
     </g>
    </g>
    <g id="xtick_5">
     <g id="line2d_5">
      <g>
       <use xlink:href="#m1f73060559" x="450.7075" y="246.04" style="stroke: #000000; stroke-width: 0.8"/>
      </g>
     </g>
     <g id="text_5">
      <!-- 0.100 -->
      <g transform="translate(436.393438 260.638438) scale(0.1 -0.1)">
       <defs>
        <path id="DejaVuSans-31" d="M 794 531 
L 1825 531 
L 1825 4091 
L 703 3866 
L 703 4441 
L 1819 4666 
L 2450 4666 
L 2450 531 
L 3481 531 
L 3481 0 
L 794 0 
L 794 531 
z
" transform="scale(0.015625)"/>
       </defs>
       <use xlink:href="#DejaVuSans-30"/>
       <use xlink:href="#DejaVuSans-2e" transform="translate(63.623047 0)"/>
       <use xlink:href="#DejaVuSans-31" transform="translate(95.410156 0)"/>
       <use xlink:href="#DejaVuSans-30" transform="translate(159.033203 0)"/>
       <use xlink:href="#DejaVuSans-30" transform="translate(222.65625 0)"/>
      </g>
     </g>
    </g>
    <g id="xtick_6">
     <g id="line2d_6">
      <g>
       <use xlink:href="#m1f73060559" x="547.786875" y="246.04" style="stroke: #000000; stroke-width: 0.8"/>
      </g>
     </g>
     <g id="text_6">
      <!-- 0.125 -->
      <g transform="translate(533.472813 260.638438) scale(0.1 -0.1)">
       <use xlink:href="#DejaVuSans-30"/>
       <use xlink:href="#DejaVuSans-2e" transform="translate(63.623047 0)"/>
       <use xlink:href="#DejaVuSans-31" transform="translate(95.410156 0)"/>
       <use xlink:href="#DejaVuSans-32" transform="translate(159.033203 0)"/>
       <use xlink:href="#DejaVuSans-35" transform="translate(222.65625 0)"/>
      </g>
     </g>
    </g>
    <g id="xtick_7">
     <g id="line2d_7">
      <g>
       <use xlink:href="#m1f73060559" x="644.86625" y="246.04" style="stroke: #000000; stroke-width: 0.8"/>
      </g>
     </g>
     <g id="text_7">
      <!-- 0.150 -->
      <g transform="translate(630.552188 260.638438) scale(0.1 -0.1)">
       <use xlink:href="#DejaVuSans-30"/>
       <use xlink:href="#DejaVuSans-2e" transform="translate(63.623047 0)"/>
       <use xlink:href="#DejaVuSans-31" transform="translate(95.410156 0)"/>
       <use xlink:href="#DejaVuSans-35" transform="translate(159.033203 0)"/>
       <use xlink:href="#DejaVuSans-30" transform="translate(222.65625 0)"/>
      </g>
     </g>
    </g>
    <g id="xtick_8">
     <g id="line2d_8">
      <g>
       <use xlink:href="#m1f73060559" x="741.945625" y="246.04" style="stroke: #000000; stroke-width: 0.8"/>
      </g>
     </g>
     <g id="text_8">
      <!-- 0.175 -->
      <g transform="translate(727.631563 260.638438) scale(0.1 -0.1)">
       <use xlink:href="#DejaVuSans-30"/>
       <use xlink:href="#DejaVuSans-2e" transform="translate(63.623047 0)"/>
       <use xlink:href="#DejaVuSans-31" transform="translate(95.410156 0)"/>
       <use xlink:href="#DejaVuSans-37" transform="translate(159.033203 0)"/>
       <use xlink:href="#DejaVuSans-35" transform="translate(222.65625 0)"/>
      </g>
     </g>
    </g>
    <g id="xtick_9">
     <g id="line2d_9">
      <g>
       <use xlink:href="#m1f73060559" x="839.025" y="246.04" style="stroke: #000000; stroke-width: 0.8"/>
      </g>
     </g>
     <g id="text_9">
      <!-- 0.200 -->
      <g transform="translate(824.710938 260.638438) scale(0.1 -0.1)">
       <use xlink:href="#DejaVuSans-30"/>
       <use xlink:href="#DejaVuSans-2e" transform="translate(63.623047 0)"/>
       <use xlink:href="#DejaVuSans-32" transform="translate(95.410156 0)"/>
       <use xlink:href="#DejaVuSans-30" transform="translate(159.033203 0)"/>
       <use xlink:href="#DejaVuSans-30" transform="translate(222.65625 0)"/>
      </g>
     </g>
    </g>
    <g id="text_10">
     <!-- Time Within Phase-Aligned Window (s) -->
     <g transform="translate(354.580156 274.316562) scale(0.1 -0.1)">
      <defs>
       <path id="DejaVuSans-54" d="M -19 4666 
L 3928 4666 
L 3928 4134 
L 2272 4134 
L 2272 0 
L 1638 0 
L 1638 4134 
L -19 4134 
L -19 4666 
z
" transform="scale(0.015625)"/>
       <path id="DejaVuSans-69" d="M 603 3500 
L 1178 3500 
L 1178 0 
L 603 0 
L 603 3500 
z
M 603 4863 
L 1178 4863 
L 1178 4134 
L 603 4134 
L 603 4863 
z
" transform="scale(0.015625)"/>
       <path id="DejaVuSans-6d" d="M 3328 2828 
Q 3544 3216 3844 3400 
Q 4144 3584 4550 3584 
Q 5097 3584 5394 3201 
Q 5691 2819 5691 2113 
L 5691 0 
L 5113 0 
L 5113 2094 
Q 5113 2597 4934 2840 
Q 4756 3084 4391 3084 
Q 3944 3084 3684 2787 
Q 3425 2491 3425 1978 
L 3425 0 
L 2847 0 
L 2847 2094 
Q 2847 2600 2669 2842 
Q 2491 3084 2119 3084 
Q 1678 3084 1418 2786 
Q 1159 2488 1159 1978 
L 1159 0 
L 581 0 
L 581 3500 
L 1159 3500 
L 1159 2956 
Q 1356 3278 1631 3431 
Q 1906 3584 2284 3584 
Q 2666 3584 2933 3390 
Q 3200 3197 3328 2828 
z
" transform="scale(0.015625)"/>
       <path id="DejaVuSans-65" d="M 3597 1894 
L 3597 1613 
L 953 1613 
Q 991 1019 1311 708 
Q 1631 397 2203 397 
Q 2534 397 2845 478 
Q 3156 559 3463 722 
L 3463 178 
Q 3153 47 2828 -22 
Q 2503 -91 2169 -91 
Q 1331 -91 842 396 
Q 353 884 353 1716 
Q 353 2575 817 3079 
Q 1281 3584 2069 3584 
Q 2775 3584 3186 3129 
Q 3597 2675 3597 1894 
z
M 3022 2063 
Q 3016 2534 2758 2815 
Q 2500 3097 2075 3097 
Q 1594 3097 1305 2825 
Q 1016 2553 972 2059 
L 3022 2063 
z
" transform="scale(0.015625)"/>
       <path id="DejaVuSans-20" transform="scale(0.015625)"/>
       <path id="DejaVuSans-57" d="M 213 4666 
L 850 4666 
L 1831 722 
L 2809 4666 
L 3519 4666 
L 4500 722 
L 5478 4666 
L 6119 4666 
L 4947 0 
L 4153 0 
L 3169 4050 
L 2175 0 
L 1381 0 
L 213 4666 
z
" transform="scale(0.015625)"/>
       <path id="DejaVuSans-74" d="M 1172 4494 
L 1172 3500 
L 2356 3500 
L 2356 3053 
L 1172 3053 
L 1172 1153 
Q 1172 725 1289 603 
Q 1406 481 1766 481 
L 2356 481 
L 2356 0 
L 1766 0 
Q 1100 0 847 248 
Q 594 497 594 1153 
L 594 3053 
L 172 3053 
L 172 3500 
L 594 3500 
L 594 4494 
L 1172 4494 
z
" transform="scale(0.015625)"/>
       <path id="DejaVuSans-68" d="M 3513 2113 
L 3513 0 
L 2938 0 
L 2938 2094 
Q 2938 2591 2744 2837 
Q 2550 3084 2163 3084 
Q 1697 3084 1428 2787 
Q 1159 2491 1159 1978 
L 1159 0 
L 581 0 
L 581 4863 
L 1159 4863 
L 1159 2956 
Q 1366 3272 1645 3428 
Q 1925 3584 2291 3584 
Q 2894 3584 3203 3211 
Q 3513 2838 3513 2113 
z
" transform="scale(0.015625)"/>
       <path id="DejaVuSans-6e" d="M 3513 2113 
L 3513 0 
L 2938 0 
L 2938 2094 
Q 2938 2591 2744 2837 
Q 2550 3084 2163 3084 
Q 1697 3084 1428 2787 
Q 1159 2491 1159 1978 
L 1159 0 
L 581 0 
L 581 3500 
L 1159 3500 
L 1159 2956 
Q 1366 3272 1645 3428 
Q 1925 3584 2291 3584 
Q 2894 3584 3203 3211 
Q 3513 2838 3513 2113 
z
" transform="scale(0.015625)"/>
       <path id="DejaVuSans-50" d="M 1259 4147 
L 1259 2394 
L 2053 2394 
Q 2494 2394 2734 2622 
Q 2975 2850 2975 3272 
Q 2975 3691 2734 3919 
Q 2494 4147 2053 4147 
L 1259 4147 
z
M 628 4666 
L 2053 4666 
Q 2838 4666 3239 4311 
Q 3641 3956 3641 3272 
Q 3641 2581 3239 2228 
Q 2838 1875 2053 1875 
L 1259 1875 
L 1259 0 
L 628 0 
L 628 4666 
z
" transform="scale(0.015625)"/>
       <path id="DejaVuSans-61" d="M 2194 1759 
Q 1497 1759 1228 1600 
Q 959 1441 959 1056 
Q 959 750 1161 570 
Q 1363 391 1709 391 
Q 2188 391 2477 730 
Q 2766 1069 2766 1631 
L 2766 1759 
L 2194 1759 
z
M 3341 1997 
L 3341 0 
L 2766 0 
L 2766 531 
Q 2569 213 2275 61 
Q 1981 -91 1556 -91 
Q 1019 -91 701 211 
Q 384 513 384 1019 
Q 384 1609 779 1909 
Q 1175 2209 1959 2209 
L 2766 2209 
L 2766 2266 
Q 2766 2663 2505 2880 
Q 2244 3097 1772 3097 
Q 1472 3097 1187 3025 
Q 903 2953 641 2809 
L 641 3341 
Q 956 3463 1253 3523 
Q 1550 3584 1831 3584 
Q 2591 3584 2966 3190 
Q 3341 2797 3341 1997 
z
" transform="scale(0.015625)"/>
       <path id="DejaVuSans-73" d="M 2834 3397 
L 2834 2853 
Q 2591 2978 2328 3040 
Q 2066 3103 1784 3103 
Q 1356 3103 1142 2972 
Q 928 2841 928 2578 
Q 928 2378 1081 2264 
Q 1234 2150 1697 2047 
L 1894 2003 
Q 2506 1872 2764 1633 
Q 3022 1394 3022 966 
Q 3022 478 2636 193 
Q 2250 -91 1575 -91 
Q 1294 -91 989 -36 
Q 684 19 347 128 
L 347 722 
Q 666 556 975 473 
Q 1284 391 1588 391 
Q 1994 391 2212 530 
Q 2431 669 2431 922 
Q 2431 1156 2273 1281 
Q 2116 1406 1581 1522 
L 1381 1569 
Q 847 1681 609 1914 
Q 372 2147 372 2553 
Q 372 3047 722 3315 
Q 1072 3584 1716 3584 
Q 2034 3584 2315 3537 
Q 2597 3491 2834 3397 
z
" transform="scale(0.015625)"/>
       <path id="DejaVuSans-2d" d="M 313 2009 
L 1997 2009 
L 1997 1497 
L 313 1497 
L 313 2009 
z
" transform="scale(0.015625)"/>
       <path id="DejaVuSans-41" d="M 2188 4044 
L 1331 1722 
L 3047 1722 
L 2188 4044 
z
M 1831 4666 
L 2547 4666 
L 4325 0 
L 3669 0 
L 3244 1197 
L 1141 1197 
L 716 0 
L 50 0 
L 1831 4666 
z
" transform="scale(0.015625)"/>
       <path id="DejaVuSans-6c" d="M 603 4863 
L 1178 4863 
L 1178 0 
L 603 0 
L 603 4863 
z
" transform="scale(0.015625)"/>
       <path id="DejaVuSans-67" d="M 2906 1791 
Q 2906 2416 2648 2759 
Q 2391 3103 1925 3103 
Q 1463 3103 1205 2759 
Q 947 2416 947 1791 
Q 947 1169 1205 825 
Q 1463 481 1925 481 
Q 2391 481 2648 825 
Q 2906 1169 2906 1791 
z
M 3481 434 
Q 3481 -459 3084 -895 
Q 2688 -1331 1869 -1331 
Q 1566 -1331 1297 -1286 
Q 1028 -1241 775 -1147 
L 775 -588 
Q 1028 -725 1275 -790 
Q 1522 -856 1778 -856 
Q 2344 -856 2625 -561 
Q 2906 -266 2906 331 
L 2906 616 
Q 2728 306 2450 153 
Q 2172 0 1784 0 
Q 1141 0 747 490 
Q 353 981 353 1791 
Q 353 2603 747 3093 
Q 1141 3584 1784 3584 
Q 2172 3584 2450 3431 
Q 2728 3278 2906 2969 
L 2906 3500 
L 3481 3500 
L 3481 434 
z
" transform="scale(0.015625)"/>
       <path id="DejaVuSans-64" d="M 2906 2969 
L 2906 4863 
L 3481 4863 
L 3481 0 
L 2906 0 
L 2906 525 
Q 2725 213 2448 61 
Q 2172 -91 1784 -91 
Q 1150 -91 751 415 
Q 353 922 353 1747 
Q 353 2572 751 3078 
Q 1150 3584 1784 3584 
Q 2172 3584 2448 3432 
Q 2725 3281 2906 2969 
z
M 947 1747 
Q 947 1113 1208 752 
Q 1469 391 1925 391 
Q 2381 391 2643 752 
Q 2906 1113 2906 1747 
Q 2906 2381 2643 2742 
Q 2381 3103 1925 3103 
Q 1469 3103 1208 2742 
Q 947 2381 947 1747 
z
" transform="scale(0.015625)"/>
       <path id="DejaVuSans-6f" d="M 1959 3097 
Q 1497 3097 1228 2736 
Q 959 2375 959 1747 
Q 959 1119 1226 758 
Q 1494 397 1959 397 
Q 2419 397 2687 759 
Q 2956 1122 2956 1747 
Q 2956 2369 2687 2733 
Q 2419 3097 1959 3097 
z
M 1959 3584 
Q 2709 3584 3137 3096 
Q 3566 2609 3566 1747 
Q 3566 888 3137 398 
Q 2709 -91 1959 -91 
Q 1206 -91 779 398 
Q 353 888 353 1747 
Q 353 2609 779 3096 
Q 1206 3584 1959 3584 
z
" transform="scale(0.015625)"/>
       <path id="DejaVuSans-77" d="M 269 3500 
L 844 3500 
L 1563 769 
L 2278 3500 
L 2956 3500 
L 3675 769 
L 4391 3500 
L 4966 3500 
L 4050 0 
L 3372 0 
L 2619 2869 
L 1863 0 
L 1184 0 
L 269 3500 
z
" transform="scale(0.015625)"/>
       <path id="DejaVuSans-28" d="M 1984 4856 
Q 1566 4138 1362 3434 
Q 1159 2731 1159 2009 
Q 1159 1288 1364 580 
Q 1569 -128 1984 -844 
L 1484 -844 
Q 1016 -109 783 600 
Q 550 1309 550 2009 
Q 550 2706 781 3412 
Q 1013 4119 1484 4856 
L 1984 4856 
z
" transform="scale(0.015625)"/>
       <path id="DejaVuSans-29" d="M 513 4856 
L 1013 4856 
Q 1481 4119 1714 3412 
Q 1947 2706 1947 2009 
Q 1947 1309 1714 600 
Q 1481 -109 1013 -844 
L 513 -844 
Q 928 -128 1133 580 
Q 1338 1288 1338 2009 
Q 1338 2731 1133 3434 
Q 928 4138 513 4856 
z
" transform="scale(0.015625)"/>
      </defs>
      <use xlink:href="#DejaVuSans-54"/>
      <use xlink:href="#DejaVuSans-69" transform="translate(57.958984 0)"/>
      <use xlink:href="#DejaVuSans-6d" transform="translate(85.742188 0)"/>
      <use xlink:href="#DejaVuSans-65" transform="translate(183.154297 0)"/>
      <use xlink:href="#DejaVuSans-20" transform="translate(244.677734 0)"/>
      <use xlink:href="#DejaVuSans-57" transform="translate(276.464844 0)"/>
      <use xlink:href="#DejaVuSans-69" transform="translate(373.091797 0)"/>
      <use xlink:href="#DejaVuSans-74" transform="translate(400.875 0)"/>
      <use xlink:href="#DejaVuSans-68" transform="translate(440.083984 0)"/>
      <use xlink:href="#DejaVuSans-69" transform="translate(503.462891 0)"/>
      <use xlink:href="#DejaVuSans-6e" transform="translate(531.246094 0)"/>
      <use xlink:href="#DejaVuSans-20" transform="translate(594.625 0)"/>
      <use xlink:href="#DejaVuSans-50" transform="translate(626.412109 0)"/>
      <use xlink:href="#DejaVuSans-68" transform="translate(686.714844 0)"/>
      <use xlink:href="#DejaVuSans-61" transform="translate(750.09375 0)"/>
      <use xlink:href="#DejaVuSans-73" transform="translate(811.373047 0)"/>
      <use xlink:href="#DejaVuSans-65" transform="translate(863.472656 0)"/>
      <use xlink:href="#DejaVuSans-2d" transform="translate(924.996094 0)"/>
      <use xlink:href="#DejaVuSans-41" transform="translate(958.830078 0)"/>
      <use xlink:href="#DejaVuSans-6c" transform="translate(1027.238281 0)"/>
      <use xlink:href="#DejaVuSans-69" transform="translate(1055.021484 0)"/>
      <use xlink:href="#DejaVuSans-67" transform="translate(1082.804688 0)"/>
      <use xlink:href="#DejaVuSans-6e" transform="translate(1146.28125 0)"/>
      <use xlink:href="#DejaVuSans-65" transform="translate(1209.660156 0)"/>
      <use xlink:href="#DejaVuSans-64" transform="translate(1271.183594 0)"/>
      <use xlink:href="#DejaVuSans-20" transform="translate(1334.660156 0)"/>
      <use xlink:href="#DejaVuSans-57" transform="translate(1366.447266 0)"/>
      <use xlink:href="#DejaVuSans-69" transform="translate(1463.074219 0)"/>
      <use xlink:href="#DejaVuSans-6e" transform="translate(1490.857422 0)"/>
      <use xlink:href="#DejaVuSans-64" transform="translate(1554.236328 0)"/>
      <use xlink:href="#DejaVuSans-6f" transform="translate(1617.712891 0)"/>
      <use xlink:href="#DejaVuSans-77" transform="translate(1678.894531 0)"/>
      <use xlink:href="#DejaVuSans-20" transform="translate(1760.681641 0)"/>
      <use xlink:href="#DejaVuSans-28" transform="translate(1792.46875 0)"/>
      <use xlink:href="#DejaVuSans-73" transform="translate(1831.482422 0)"/>
      <use xlink:href="#DejaVuSans-29" transform="translate(1883.582031 0)"/>
     </g>
    </g>
   </g>
   <g id="matplotlib.axis_2">
    <g id="ytick_1">
     <g id="line2d_10">
      <defs>
       <path id="maa8500b7ae" d="M 0 0 
L -3.5 0 
" style="stroke: #000000; stroke-width: 0.8"/>
      </defs>
      <g>
       <use xlink:href="#maa8500b7ae" x="62.39" y="239.990243" style="stroke: #000000; stroke-width: 0.8"/>
      </g>
     </g>
     <g id="text_11">
      <!-- −0.15 -->
      <g transform="translate(24.744687 243.789461) scale(0.1 -0.1)">
       <defs>
        <path id="DejaVuSans-2212" d="M 678 2272 
L 4684 2272 
L 4684 1741 
L 678 1741 
L 678 2272 
z
" transform="scale(0.015625)"/>
       </defs>
       <use xlink:href="#DejaVuSans-2212"/>
       <use xlink:href="#DejaVuSans-30" transform="translate(83.789062 0)"/>
       <use xlink:href="#DejaVuSans-2e" transform="translate(147.412109 0)"/>
       <use xlink:href="#DejaVuSans-31" transform="translate(179.199219 0)"/>
       <use xlink:href="#DejaVuSans-35" transform="translate(242.822266 0)"/>
      </g>
     </g>
    </g>
    <g id="ytick_2">
     <g id="line2d_11">
      <g>
       <use xlink:href="#maa8500b7ae" x="62.39" y="205.477584" style="stroke: #000000; stroke-width: 0.8"/>
      </g>
     </g>
     <g id="text_12">
      <!-- −0.10 -->
      <g transform="translate(24.744687 209.276803) scale(0.1 -0.1)">
       <use xlink:href="#DejaVuSans-2212"/>
       <use xlink:href="#DejaVuSans-30" transform="translate(83.789062 0)"/>
       <use xlink:href="#DejaVuSans-2e" transform="translate(147.412109 0)"/>
       <use xlink:href="#DejaVuSans-31" transform="translate(179.199219 0)"/>
       <use xlink:href="#DejaVuSans-30" transform="translate(242.822266 0)"/>
      </g>
     </g>
    </g>
    <g id="ytick_3">
     <g id="line2d_12">
      <g>
       <use xlink:href="#maa8500b7ae" x="62.39" y="170.964925" style="stroke: #000000; stroke-width: 0.8"/>
      </g>
     </g>
     <g id="text_13">
      <!-- −0.05 -->
      <g transform="translate(24.744687 174.764144) scale(0.1 -0.1)">
       <use xlink:href="#DejaVuSans-2212"/>
       <use xlink:href="#DejaVuSans-30" transform="translate(83.789062 0)"/>
       <use xlink:href="#DejaVuSans-2e" transform="translate(147.412109 0)"/>
       <use xlink:href="#DejaVuSans-30" transform="translate(179.199219 0)"/>
       <use xlink:href="#DejaVuSans-35" transform="translate(242.822266 0)"/>
      </g>
     </g>
    </g>
    <g id="ytick_4">
     <g id="line2d_13">
      <g>
       <use xlink:href="#maa8500b7ae" x="62.39" y="136.452267" style="stroke: #000000; stroke-width: 0.8"/>
      </g>
     </g>
     <g id="text_14">
      <!-- 0.00 -->
      <g transform="translate(33.124375 140.251486) scale(0.1 -0.1)">
       <use xlink:href="#DejaVuSans-30"/>
       <use xlink:href="#DejaVuSans-2e" transform="translate(63.623047 0)"/>
       <use xlink:href="#DejaVuSans-30" transform="translate(95.410156 0)"/>
       <use xlink:href="#DejaVuSans-30" transform="translate(159.033203 0)"/>
      </g>
     </g>
    </g>
    <g id="ytick_5">
     <g id="line2d_14">
      <g>
       <use xlink:href="#maa8500b7ae" x="62.39" y="101.939608" style="stroke: #000000; stroke-width: 0.8"/>
      </g>
     </g>
     <g id="text_15">
      <!-- 0.05 -->
      <g transform="translate(33.124375 105.738827) scale(0.1 -0.1)">
       <use xlink:href="#DejaVuSans-30"/>
       <use xlink:href="#DejaVuSans-2e" transform="translate(63.623047 0)"/>
       <use xlink:href="#DejaVuSans-30" transform="translate(95.410156 0)"/>
       <use xlink:href="#DejaVuSans-35" transform="translate(159.033203 0)"/>
      </g>
     </g>
    </g>
    <g id="ytick_6">
     <g id="line2d_15">
      <g>
       <use xlink:href="#maa8500b7ae" x="62.39" y="67.42695" style="stroke: #000000; stroke-width: 0.8"/>
      </g>
     </g>
     <g id="text_16">
      <!-- 0.10 -->
      <g transform="translate(33.124375 71.226169) scale(0.1 -0.1)">
       <use xlink:href="#DejaVuSans-30"/>
       <use xlink:href="#DejaVuSans-2e" transform="translate(63.623047 0)"/>
       <use xlink:href="#DejaVuSans-31" transform="translate(95.410156 0)"/>
       <use xlink:href="#DejaVuSans-30" transform="translate(159.033203 0)"/>
      </g>
     </g>
    </g>
    <g id="ytick_7">
     <g id="line2d_16">
      <g>
       <use xlink:href="#maa8500b7ae" x="62.39" y="32.914291" style="stroke: #000000; stroke-width: 0.8"/>
      </g>
     </g>
     <g id="text_17">
      <!-- 0.15 -->
      <g transform="translate(33.124375 36.71351) scale(0.1 -0.1)">
       <use xlink:href="#DejaVuSans-30"/>
       <use xlink:href="#DejaVuSans-2e" transform="translate(63.623047 0)"/>
       <use xlink:href="#DejaVuSans-31" transform="translate(95.410156 0)"/>
       <use xlink:href="#DejaVuSans-35" transform="translate(159.033203 0)"/>
      </g>
     </g>
    </g>
    <g id="text_18">
     <!-- ADC -->
     <g transform="translate(18.665 147.221719) rotate(-90) scale(0.1 -0.1)">
      <defs>
       <path id="DejaVuSans-44" d="M 1259 4147 
L 1259 519 
L 2022 519 
Q 2988 519 3436 956 
Q 3884 1394 3884 2338 
Q 3884 3275 3436 3711 
Q 2988 4147 2022 4147 
L 1259 4147 
z
M 628 4666 
L 1925 4666 
Q 3281 4666 3915 4102 
Q 4550 3538 4550 2338 
Q 4550 1131 3912 565 
Q 3275 0 1925 0 
L 628 0 
L 628 4666 
z
" transform="scale(0.015625)"/>
       <path id="DejaVuSans-43" d="M 4122 4306 
L 4122 3641 
Q 3803 3938 3442 4084 
Q 3081 4231 2675 4231 
Q 1875 4231 1450 3742 
Q 1025 3253 1025 2328 
Q 1025 1406 1450 917 
Q 1875 428 2675 428 
Q 3081 428 3442 575 
Q 3803 722 4122 1019 
L 4122 359 
Q 3791 134 3420 21 
Q 3050 -91 2638 -91 
Q 1578 -91 968 557 
Q 359 1206 359 2328 
Q 359 3453 968 4101 
Q 1578 4750 2638 4750 
Q 3056 4750 3426 4639 
Q 3797 4528 4122 4306 
z
" transform="scale(0.015625)"/>
      </defs>
      <use xlink:href="#DejaVuSans-41"/>
      <use xlink:href="#DejaVuSans-44" transform="translate(68.408203 0)"/>
      <use xlink:href="#DejaVuSans-43" transform="translate(145.410156 0)"/>
     </g>
    </g>
   </g>
   <g id="line2d_17">
    <path d="M 62.39 136.451317 
L 254.607163 136.452914 
L 837.083413 136.45133 
L 837.083413 136.45133 
" clip-path="url(#p693550a403)" style="fill: none; stroke: #9ca3af; stroke-opacity: 0.95; stroke-width: 1.2; stroke-linecap: square"/>
   </g>
   <g id="line2d_18">
    <path d="M 62.39 114.744049 
L 64.331587 108.280316 
L 66.273175 113.335024 
L 68.214763 128.255038 
L 70.15635 147.201226 
L 72.097938 162.442863 
L 74.039525 167.515387 
L 75.981112 159.950198 
L 77.9227 142.427658 
L 79.864288 121.829188 
L 81.805875 106.522834 
L 83.747462 102.957596 
L 85.68905 112.955022 
L 87.630638 132.832726 
L 89.572225 154.766169 
L 91.513813 169.883011 
L 93.4554 171.8609 
L 95.396987 159.566429 
L 99.280163 114.715019 
L 101.22175 100.037998 
L 103.163338 99.692498 
L 105.104925 114.098437 
L 108.9881 161.273636 
L 110.929688 175.268716 
L 112.871275 173.969366 
L 114.812862 157.679412 
L 118.696038 108.942481 
L 120.637625 95.859394 
L 122.579213 98.787219 
L 124.5208 116.702017 
L 126.462388 142.591948 
L 128.403975 166.215835 
L 130.345563 178.172366 
L 132.28715 173.656415 
L 134.228737 154.396258 
L 136.170325 127.988688 
L 138.111913 104.889314 
L 140.0535 94.255481 
L 141.995088 100.300975 
L 143.936675 120.618934 
L 145.878263 147.142826 
L 147.81985 169.360506 
L 149.761437 178.49633 
L 151.703025 170.991775 
L 153.644612 149.899037 
L 155.5862 123.639467 
L 157.527787 102.632357 
L 159.469375 95.147122 
L 161.410962 104.03501 
L 163.35255 125.636524 
L 165.294138 151.285185 
L 167.235725 170.790245 
L 169.177312 176.496427 
L 171.1189 166.299538 
L 173.060488 144.426352 
L 175.002075 119.688751 
L 176.943663 101.931713 
L 178.88525 98.108025 
L 180.826838 109.547307 
L 182.768425 131.494767 
L 184.710013 155.078527 
L 186.6516 170.893961 
L 188.593187 172.757204 
L 190.534775 160.128691 
L 194.41795 116.001765 
L 196.359538 102.263675 
L 198.301125 102.413272 
L 200.242712 116.196125 
L 204.125887 158.723785 
L 206.067475 170.310472 
L 208.009063 168.120923 
L 209.95065 153.196644 
L 211.892238 131.685919 
L 213.833825 112.323837 
L 215.775413 102.898822 
L 217.717 107.130713 
L 219.658588 123.207865 
L 221.600175 144.556039 
L 223.541763 162.514149 
L 225.48335 169.831322 
L 227.424937 163.578627 
L 229.366525 146.311871 
L 231.308112 125.027824 
L 233.2497 108.340679 
L 235.191287 103.014934 
L 237.132875 111.243935 
L 239.074462 129.761699 
L 241.01605 151.141993 
L 242.957638 166.766094 
L 244.899225 170.276115 
L 246.840813 160.137164 
L 248.7824 140.284486 
L 250.723988 118.590769 
L 252.665575 103.753254 
L 254.607163 101.828944 
L 256.54875 113.790826 
L 260.431925 157.354639 
L 262.373513 171.741705 
L 264.3151 172.358084 
L 266.256687 158.679706 
L 270.139862 112.676339 
L 272.08145 98.354996 
L 274.023037 98.728891 
L 275.964625 113.999209 
L 279.8478 162.899224 
L 281.789388 177.575198 
L 283.730975 176.559535 
L 285.672563 159.838639 
L 289.555738 107.570535 
L 291.497325 92.098379 
L 293.438913 93.386348 
L 295.3805 111.401 
L 299.263675 167.500572 
L 301.205263 184.21623 
L 303.14685 183.035903 
L 305.088437 163.898399 
L 308.971612 103.535413 
L 310.9132 85.139089 
L 312.854788 85.832081 
L 314.796375 105.908884 
L 318.67955 170.912324 
L 320.621138 191.400424 
L 322.562725 191.563501 
L 324.504313 170.742099 
L 328.387488 100.798752 
L 330.329075 77.849162 
L 332.270663 76.482587 
L 334.21225 97.844343 
L 338.095425 172.928465 
L 340.037013 198.653594 
L 341.9786 201.540084 
L 343.920187 179.850036 
L 345.861775 141.116229 
L 347.803362 99.541346 
L 349.74495 70.795016 
L 351.686537 66.11198 
L 353.628125 87.912321 
L 355.569712 128.647481 
L 357.5113 173.39709 
L 359.452887 205.331158 
L 361.394475 212.039972 
L 363.336063 190.351225 
L 365.27765 147.766119 
L 367.219238 99.882427 
L 369.160825 64.681598 
L 371.102413 55.771401 
L 373.044 77.125019 
L 374.985588 121.351059 
L 376.927175 172.235424 
L 378.868763 210.68877 
L 380.81035 221.917636 
L 382.751937 201.121903 
L 384.693525 155.521584 
L 386.635113 101.864667 
L 388.5767 60.269221 
L 390.518288 46.665744 
L 392.459875 66.684239 
L 394.401463 113.336485 
L 396.34305 169.44424 
L 398.284637 213.975241 
L 400.226225 229.946609 
L 402.167812 210.918516 
L 404.1094 163.588441 
L 406.050987 105.440978 
L 407.992575 58.274083 
L 409.934163 40.003775 
L 411.87575 57.837425 
L 413.817338 105.425378 
L 415.758925 165.11917 
L 417.700513 214.535062 
L 419.6421 234.975247 
L 421.583687 218.527928 
L 423.525275 171.140204 
L 425.466862 110.465765 
L 427.40845 59.266423 
L 429.350037 36.841818 
L 431.291625 51.726143 
L 433.233213 98.426675 
L 435.1748 159.456222 
L 437.116388 211.90582 
L 439.057975 236.078182 
L 440.999563 222.91524 
L 442.94115 177.407082 
L 444.882738 116.693264 
L 446.824325 63.581169 
L 448.765913 37.942447 
L 450.7075 49.24684 
L 452.649088 93.05087 
L 454.590675 152.749054 
L 456.532263 205.896059 
L 458.47385 232.682553 
L 460.415437 223.349889 
L 462.357025 181.75601 
L 464.298612 123.785061 
L 466.2402 71.254636 
L 468.181787 43.667771 
L 470.123375 50.942002 
L 472.064962 89.837997 
L 474.00655 145.376387 
L 475.948137 196.631449 
L 477.889725 224.651415 
L 479.831313 219.493717 
L 481.7729 183.752639 
L 483.714488 131.327872 
L 485.656075 81.997479 
L 487.597663 53.9223 
L 489.53925 56.935648 
L 491.480838 89.107318 
L 495.364013 184.561391 
L 497.3056 212.312547 
L 499.247187 211.439938 
L 501.188775 183.198742 
L 505.07195 95.209137 
L 507.013538 68.153538 
L 508.955125 66.920995 
L 510.896713 90.933632 
L 514.779888 170.423667 
L 516.721475 196.428424 
L 518.663063 199.69867 
L 520.60465 180.141805 
L 524.487825 110.033177 
L 526.429413 85.410442 
L 528.371 80.20099 
L 530.312588 95.151703 
L 532.254175 123.784977 
L 534.195763 155.170739 
L 536.13735 178.111316 
L 538.078938 185.131961 
L 540.020525 174.857128 
L 541.962112 152.044006 
L 543.9037 125.447044 
L 545.845288 104.451841 
L 547.786875 95.775275 
L 549.728463 101.386681 
L 551.67005 118.26098 
L 553.611638 139.866856 
L 555.553225 158.695084 
L 557.494813 168.847995 
L 559.4364 167.806183 
L 561.377988 156.881362 
L 565.261163 123.890016 
L 567.20275 112.461034 
L 569.144338 109.105334 
L 571.085925 114.176097 
L 573.027513 125.569435 
L 574.9691 139.581185 
L 576.910687 152.069456 
L 578.852275 159.577689 
L 580.793863 160.164443 
L 582.73545 153.807226 
L 584.677038 142.349831 
L 586.618625 129.030876 
L 588.560213 117.680591 
L 590.5018 111.726252 
L 592.443388 113.21062 
L 594.384975 122.079809 
L 596.326563 135.994079 
L 598.26815 150.819626 
L 600.209738 161.768457 
L 602.151325 164.915031 
L 604.092913 158.621932 
L 606.0345 144.349162 
L 607.976088 126.460762 
L 609.917675 110.961374 
L 611.859262 103.495038 
L 613.80085 107.267488 
L 615.742437 121.66592 
L 619.625612 161.720106 
L 621.5672 173.136648 
L 623.508787 171.789645 
L 625.450375 157.489025 
L 629.33355 111.77844 
L 631.275138 96.827586 
L 633.216725 95.879805 
L 635.158312 109.873691 
L 637.0999 134.201163 
L 639.041488 160.196303 
L 640.983075 178.231962 
L 642.924662 181.313284 
L 644.86625 167.815666 
L 646.807838 142.286456 
L 648.749425 113.931192 
L 650.691012 93.280873 
L 652.6326 88.252567 
L 654.574187 101.08811 
L 656.515775 127.364058 
L 658.457363 157.506072 
L 660.39895 180.293049 
L 662.340537 187.061939 
L 664.282125 175.026847 
L 666.223713 148.431368 
L 668.1653 117.056295 
L 670.106887 92.606355 
L 672.048475 84.31763 
L 673.990063 95.444262 
L 675.93165 121.969815 
L 677.873238 154.056946 
L 679.814825 179.711631 
L 681.756413 189.290455 
L 683.698 179.147843 
L 685.639588 153.035591 
L 687.581175 120.71352 
L 689.522762 94.286985 
L 691.46435 83.651713 
L 693.405938 92.76834 
L 695.347525 118.176457 
L 697.289112 150.309283 
L 699.2307 177.108343 
L 701.172288 188.567158 
L 703.113875 180.484731 
L 705.055463 156.014641 
L 706.99705 124.435635 
L 708.938638 97.623354 
L 710.880225 85.569003 
L 712.821813 92.641925 
L 714.7634 115.999275 
L 716.704988 146.723639 
L 718.646575 173.234386 
L 720.588163 185.664733 
L 722.52975 179.545546 
L 724.471338 157.416432 
L 726.412925 127.782194 
L 728.354513 101.840635 
L 730.2961 89.242427 
L 732.237687 94.491943 
L 734.179275 115.334438 
L 736.120862 143.707458 
L 738.06245 168.859889 
L 740.004037 181.431524 
L 741.945625 176.942965 
L 743.887213 157.392484 
L 745.8288 130.390707 
L 747.770387 106.200857 
L 749.711975 93.834869 
L 751.653563 97.691426 
L 753.59515 115.991547 
L 755.536737 141.567645 
L 757.478325 164.665045 
L 759.419913 176.662733 
L 761.3615 173.294022 
L 763.303087 156.163059 
L 765.244675 132.018802 
L 767.186262 110.10449 
L 769.12785 98.620822 
L 771.069438 101.655525 
L 773.011025 117.72935 
L 774.952612 140.475061 
L 776.8942 161.14937 
L 778.835788 171.990271 
L 780.777375 169.131875 
L 782.718962 153.981968 
L 784.66055 132.571914 
L 786.602138 113.167183 
L 788.543725 103.081178 
L 790.485313 105.918882 
L 792.4269 120.289185 
L 794.368488 140.445565 
L 796.310075 158.571589 
L 798.251663 167.806533 
L 800.19325 164.841871 
L 802.134838 151.105965 
L 804.076425 132.112838 
L 806.018013 115.261292 
L 807.9596 106.958465 
L 809.901187 110.184151 
L 811.842775 123.421865 
L 813.784363 141.340227 
L 815.72595 156.927952 
L 817.667538 164.231733 
L 819.609125 160.629731 
L 821.550713 147.772215 
L 823.4923 130.851708 
L 825.433888 116.517188 
L 827.375475 110.266254 
L 829.317063 114.336521 
L 831.25865 139.726145 
L 833.200238 158.814957 
L 835.141825 146.68261 
L 837.083413 129.667408 
L 837.083413 129.667408 
" clip-path="url(#p693550a403)" style="fill: none; stroke: #2563eb; stroke-opacity: 0.98; stroke-width: 1.25; stroke-linecap: square"/>
   </g>
   <g id="line2d_19">
    <path d="M 62.39 94.616107 
L 64.331587 106.379369 
L 66.273175 130.318768 
L 68.214763 157.387013 
L 70.15635 177.030378 
L 72.097938 181.305081 
L 74.039525 168.086627 
L 75.981112 142.076368 
L 77.9227 113.143068 
L 79.864288 92.57843 
L 81.805875 88.687343 
L 83.747462 103.436312 
L 85.68905 131.512088 
L 87.630638 162.225793 
L 89.572225 183.584505 
L 91.513813 186.978541 
L 93.4554 170.650603 
L 95.396987 140.549184 
L 97.338575 108.167913 
L 99.280163 86.152797 
L 101.22175 83.357884 
L 103.163338 101.284824 
L 105.104925 133.338179 
L 107.046513 167.248691 
L 108.9881 189.775631 
L 110.929688 191.883614 
L 112.871275 172.367051 
L 116.75445 103.188794 
L 118.696038 80.297847 
L 120.637625 78.947741 
L 122.579213 100.014731 
L 126.462388 172.09142 
L 128.403975 195.198989 
L 130.345563 195.73934 
L 132.28715 173.190723 
L 136.170325 98.574292 
L 138.111913 75.393493 
L 140.0535 75.693963 
L 141.995088 99.62663 
L 145.878263 176.388524 
L 147.81985 199.5065 
L 149.761437 198.356169 
L 151.703025 173.164357 
L 155.5862 94.679194 
L 157.527787 71.749723 
L 159.469375 73.736291 
L 161.410962 100.037067 
L 165.294138 179.803449 
L 167.235725 202.431749 
L 169.177312 199.645246 
L 171.1189 172.408319 
L 175.002075 91.814356 
L 176.943663 69.584696 
L 178.88525 73.112769 
L 180.826838 101.093594 
L 184.710013 182.058261 
L 186.6516 203.808685 
L 188.593187 199.618209 
L 190.534775 171.101478 
L 192.476362 129.258128 
L 194.41795 90.217939 
L 196.359538 69.009337 
L 198.301125 73.764127 
L 200.242712 102.597192 
L 202.1843 144.359397 
L 204.125887 182.960911 
L 206.067475 203.583695 
L 208.009063 198.379132 
L 209.95065 169.45635 
L 211.892238 128.023005 
L 213.833825 90.030205 
L 215.775413 70.018609 
L 217.717 75.544959 
L 219.658588 104.328645 
L 221.600175 145.19558 
L 223.541763 182.42778 
L 225.48335 201.820956 
L 227.424937 196.110781 
L 229.366525 167.692144 
L 231.308112 127.614397 
L 233.2497 91.274249 
L 235.191287 72.489568 
L 237.132875 78.239476 
L 239.074462 106.075144 
L 241.01605 145.160106 
L 242.957638 180.49906 
L 244.899225 198.700922 
L 246.840813 193.057376 
L 248.7824 166.009393 
L 250.723988 128.097484 
L 252.665575 93.845089 
L 254.607163 76.186404 
L 256.54875 81.579775 
L 258.490338 107.653623 
L 260.431925 144.239343 
L 262.373513 177.344635 
L 264.3151 194.511674 
L 266.256687 189.505676 
L 268.198275 164.569329 
L 270.139862 129.432422 
L 272.08145 97.509317 
L 274.023037 80.77281 
L 275.964625 85.265103 
L 277.906213 108.928119 
L 279.8478 142.526987 
L 281.789388 173.258496 
L 283.730975 189.632721 
L 285.672563 185.765561 
L 287.61415 163.480203 
L 289.555738 131.472894 
L 291.497325 101.916917 
L 293.438913 85.832098 
L 295.3805 88.981306 
L 297.322088 109.819529 
L 299.263675 140.219124 
L 301.205263 168.6405 
L 303.14685 184.510915 
L 305.088437 182.15061 
L 307.030025 162.791529 
L 310.9132 106.625952 
L 312.854788 90.895236 
L 314.796375 92.420244 
L 316.737963 110.307431 
L 320.621138 163.965408 
L 322.562725 179.62855 
L 324.504313 178.958638 
L 326.4459 162.495979 
L 330.329075 111.139457 
L 332.270663 95.476431 
L 334.21225 95.299354 
L 336.153837 110.424828 
L 340.037013 159.740597 
L 341.9786 175.464438 
L 343.920187 176.451977 
L 345.861775 162.537545 
L 349.74495 114.952369 
L 351.686537 99.114904 
L 353.628125 97.381543 
L 355.569712 110.247615 
L 359.452887 156.45544 
L 361.394475 172.449898 
L 363.336063 174.837471 
L 365.27765 162.823853 
L 367.219238 141.001059 
L 369.160825 117.6047 
L 371.102413 101.420347 
L 373.044 98.495174 
L 374.985588 109.881107 
L 376.927175 131.25044 
L 378.868763 154.526884 
L 380.81035 170.922826 
L 382.751937 174.246739 
L 384.693525 163.240184 
L 386.635113 142.062913 
L 388.5767 118.735771 
L 390.518288 102.118222 
L 392.459875 98.553205 
L 394.401463 109.446023 
L 396.34305 130.701319 
L 398.284637 154.246957 
L 400.226225 171.08425 
L 402.167812 174.718076 
L 404.1094 163.66297 
L 406.050987 142.057994 
L 407.992575 118.133345 
L 409.934163 101.090023 
L 411.87575 97.569697 
L 413.817338 109.065955 
L 415.758925 131.28629 
L 417.700513 155.738604 
L 419.6421 172.962636 
L 421.583687 176.182193 
L 423.525275 163.971042 
L 425.466862 140.883439 
L 427.40845 115.771256 
L 429.350037 98.403002 
L 431.291625 95.671121 
L 433.233213 108.85761 
L 435.1748 133.042764 
L 437.116388 158.926074 
L 439.057975 176.391485 
L 440.999563 178.454597 
L 442.94115 164.05378 
L 446.824325 111.829677 
L 448.765913 94.324001 
L 450.7075 93.09953 
L 452.649088 108.924279 
L 456.532263 163.525104 
L 458.47385 181.005181 
L 460.415437 181.23759 
L 462.357025 163.816143 
L 466.2402 106.693651 
L 468.181787 89.31303 
L 470.123375 90.204773 
L 472.064962 109.352096 
L 475.948137 169.056215 
L 477.889725 186.256597 
L 479.831313 184.13434 
L 481.7729 163.181373 
L 485.656075 100.927759 
L 487.597663 83.994162 
L 489.53925 87.423788 
L 491.480838 110.208066 
L 493.422425 143.696412 
L 495.364013 174.881907 
L 497.3056 191.457659 
L 499.247187 186.67636 
L 501.188775 162.092586 
L 503.130363 127.074123 
L 505.07195 95.227631 
L 507.013538 79.103953 
L 508.955125 85.246466 
L 510.896713 111.538519 
L 512.8383 147.924914 
L 514.779888 180.265489 
L 516.721475 195.841126 
L 518.663063 188.363935 
L 520.60465 160.514574 
L 522.546237 122.98257 
L 524.487825 90.352087 
L 526.429413 75.420667 
L 528.371 84.169559 
L 530.312588 113.366792 
L 532.254175 151.764535 
L 534.195763 184.446307 
L 536.13735 198.638744 
L 538.078938 188.716966 
L 540.020525 158.436816 
L 541.962112 119.506433 
L 543.9037 87.042518 
L 545.845288 73.680703 
L 547.786875 84.642275 
L 549.728463 115.689448 
L 551.67005 154.772126 
L 553.611638 186.723517 
L 555.553225 199.167992 
L 557.494813 187.331513 
L 559.4364 155.878023 
L 561.377988 117.06307 
L 563.319575 85.938386 
L 565.261163 74.491179 
L 567.20275 87.009223 
L 569.144338 118.471071 
L 571.085925 156.567597 
L 573.027513 186.538779 
L 574.9691 196.917494 
L 576.910687 183.935572 
L 578.852275 152.891772 
L 580.793863 115.984833 
L 582.73545 87.498911 
L 584.677038 78.24927 
L 586.618625 91.457809 
L 588.560213 121.638548 
L 590.5018 156.875493 
L 592.443388 183.547648 
L 594.384975 191.620189 
L 596.326563 178.43657 
L 598.26815 149.571897 
L 600.209738 116.4827 
L 602.151325 91.940992 
L 604.092913 85.07917 
L 606.0345 97.977746 
L 607.976088 125.076462 
L 609.917675 155.555083 
L 611.859262 177.670181 
L 613.80085 183.303803 
L 615.742437 170.953065 
L 617.684025 146.055793 
L 619.625612 118.623355 
L 621.5672 99.201949 
L 623.508787 94.796312 
L 625.450375 106.339738 
L 627.391962 128.625634 
L 629.33355 152.615464 
L 631.275138 169.113342 
L 633.216725 172.310213 
L 635.158312 161.82435 
L 639.041488 122.322291 
L 640.983075 108.933026 
L 642.924662 106.905689 
L 644.86625 116.098614 
L 648.749425 148.214103 
L 650.691012 158.361013 
L 652.6326 159.278691 
L 654.574187 151.593946 
L 658.457363 127.353516 
L 660.39895 120.525933 
L 662.340537 120.637187 
L 664.282125 126.623375 
L 666.223713 135.231024 
L 668.1653 142.639256 
L 670.106887 146.131372 
L 672.048475 145.092477 
L 673.990063 140.966282 
L 675.93165 136.295818 
L 677.873238 133.374391 
L 679.814825 133.170549 
L 681.756413 135.016037 
L 683.698 137.153075 
L 685.639588 137.816934 
L 687.581175 136.278699 
L 689.522762 133.305608 
L 691.46435 130.792966 
L 693.405938 130.739474 
L 695.347525 134.077044 
L 699.2307 145.937822 
L 701.172288 148.96173 
L 703.113875 146.873691 
L 705.055463 139.614637 
L 706.99705 129.578792 
L 708.938638 120.835791 
L 710.880225 117.47045 
L 712.821813 121.720874 
L 714.7634 132.748539 
L 716.704988 146.658645 
L 718.646575 157.87841 
L 720.588163 161.404453 
L 722.52975 155.007745 
L 724.471338 140.433442 
L 726.412925 122.998944 
L 728.354513 109.642673 
L 730.2961 106.144006 
L 732.237687 114.634993 
L 734.179275 132.470571 
L 736.120862 153.01446 
L 738.06245 168.125321 
L 740.004037 171.405165 
L 741.945625 160.905926 
L 743.887213 140.150403 
L 745.8288 116.966914 
L 747.770387 100.51579 
L 749.711975 97.645253 
L 751.653563 110.035326 
L 753.59515 133.32243 
L 755.536737 158.632917 
L 757.478325 175.987951 
L 759.419913 178.264234 
L 761.3615 164.128836 
L 763.303087 138.735373 
L 765.244675 111.840031 
L 767.186262 94.028237 
L 769.12785 92.520916 
L 771.069438 108.231897 
L 774.952612 163.203443 
L 776.8942 181.025804 
L 778.835788 181.604391 
L 780.777375 164.507507 
L 784.66055 107.876411 
L 786.602138 90.476792 
L 788.543725 90.967225 
L 790.485313 109.245004 
L 794.368488 166.524428 
L 796.310075 183.092619 
L 798.251663 181.416626 
L 800.19325 162.173503 
L 804.076425 105.218813 
L 806.018013 89.854931 
L 807.9596 92.805453 
L 809.901187 112.792664 
L 811.842775 141.851783 
L 813.784363 168.512602 
L 815.72595 182.345373 
L 817.667538 178.062184 
L 819.609125 157.553091 
L 821.550713 129.067674 
L 823.4923 103.892035 
L 825.433888 91.862073 
L 827.375475 97.502681 
L 829.317063 118.315056 
L 831.25865 145.864217 
L 833.200238 169.199073 
L 835.141825 179.217125 
L 837.083413 142.954596 
L 837.083413 142.954596 
" clip-path="url(#p693550a403)" style="fill: none; stroke: #dc2626; stroke-opacity: 0.98; stroke-width: 1.25; stroke-linecap: square"/>
   </g>
   <g id="patch_3">
    <path d="M 62.39 246.04 
L 62.39 26.88 
" style="fill: none; stroke: #000000; stroke-width: 0.8; stroke-linejoin: miter; stroke-linecap: square"/>
   </g>
   <g id="patch_4">
    <path d="M 839.025 246.04 
L 839.025 26.88 
" style="fill: none; stroke: #000000; stroke-width: 0.8; stroke-linejoin: miter; stroke-linecap: square"/>
   </g>
   <g id="patch_5">
    <path d="M 62.39 246.04 
L 839.025 246.04 
" style="fill: none; stroke: #000000; stroke-width: 0.8; stroke-linejoin: miter; stroke-linecap: square"/>
   </g>
   <g id="patch_6">
    <path d="M 62.39 26.88 
L 839.025 26.88 
" style="fill: none; stroke: #000000; stroke-width: 0.8; stroke-linejoin: miter; stroke-linecap: square"/>
   </g>
   <g id="text_19">
    <!-- Phase-Aligned 200Hz Waveform -->
    <g transform="translate(354.825625 20.88) scale(0.12 -0.12)">
     <defs>
      <path id="DejaVuSans-48" d="M 628 4666 
L 1259 4666 
L 1259 2753 
L 3553 2753 
L 3553 4666 
L 4184 4666 
L 4184 0 
L 3553 0 
L 3553 2222 
L 1259 2222 
L 1259 0 
L 628 0 
L 628 4666 
z
" transform="scale(0.015625)"/>
      <path id="DejaVuSans-7a" d="M 353 3500 
L 3084 3500 
L 3084 2975 
L 922 459 
L 3084 459 
L 3084 0 
L 275 0 
L 275 525 
L 2438 3041 
L 353 3041 
L 353 3500 
z
" transform="scale(0.015625)"/>
      <path id="DejaVuSans-76" d="M 191 3500 
L 800 3500 
L 1894 563 
L 2988 3500 
L 3597 3500 
L 2284 0 
L 1503 0 
L 191 3500 
z
" transform="scale(0.015625)"/>
      <path id="DejaVuSans-66" d="M 2375 4863 
L 2375 4384 
L 1825 4384 
Q 1516 4384 1395 4259 
Q 1275 4134 1275 3809 
L 1275 3500 
L 2222 3500 
L 2222 3053 
L 1275 3053 
L 1275 0 
L 697 0 
L 697 3053 
L 147 3053 
L 147 3500 
L 697 3500 
L 697 3744 
Q 697 4328 969 4595 
Q 1241 4863 1831 4863 
L 2375 4863 
z
" transform="scale(0.015625)"/>
      <path id="DejaVuSans-72" d="M 2631 2963 
Q 2534 3019 2420 3045 
Q 2306 3072 2169 3072 
Q 1681 3072 1420 2755 
Q 1159 2438 1159 1844 
L 1159 0 
L 581 0 
L 581 3500 
L 1159 3500 
L 1159 2956 
Q 1341 3275 1631 3429 
Q 1922 3584 2338 3584 
Q 2397 3584 2469 3576 
Q 2541 3569 2628 3553 
L 2631 2963 
z
" transform="scale(0.015625)"/>
     </defs>
     <use xlink:href="#DejaVuSans-50"/>
     <use xlink:href="#DejaVuSans-68" transform="translate(60.302734 0)"/>
     <use xlink:href="#DejaVuSans-61" transform="translate(123.681641 0)"/>
     <use xlink:href="#DejaVuSans-73" transform="translate(184.960938 0)"/>
     <use xlink:href="#DejaVuSans-65" transform="translate(237.060547 0)"/>
     <use xlink:href="#DejaVuSans-2d" transform="translate(298.583984 0)"/>
     <use xlink:href="#DejaVuSans-41" transform="translate(332.417969 0)"/>
     <use xlink:href="#DejaVuSans-6c" transform="translate(400.826172 0)"/>
     <use xlink:href="#DejaVuSans-69" transform="translate(428.609375 0)"/>
     <use xlink:href="#DejaVuSans-67" transform="translate(456.392578 0)"/>
     <use xlink:href="#DejaVuSans-6e" transform="translate(519.869141 0)"/>
     <use xlink:href="#DejaVuSans-65" transform="translate(583.248047 0)"/>
     <use xlink:href="#DejaVuSans-64" transform="translate(644.771484 0)"/>
     <use xlink:href="#DejaVuSans-20" transform="translate(708.248047 0)"/>
     <use xlink:href="#DejaVuSans-32" transform="translate(740.035156 0)"/>
     <use xlink:href="#DejaVuSans-30" transform="translate(803.658203 0)"/>
     <use xlink:href="#DejaVuSans-30" transform="translate(867.28125 0)"/>
     <use xlink:href="#DejaVuSans-48" transform="translate(930.904297 0)"/>
     <use xlink:href="#DejaVuSans-7a" transform="translate(1006.099609 0)"/>
     <use xlink:href="#DejaVuSans-20" transform="translate(1058.589844 0)"/>
     <use xlink:href="#DejaVuSans-57" transform="translate(1090.376953 0)"/>
     <use xlink:href="#DejaVuSans-61" transform="translate(1182.878906 0)"/>
     <use xlink:href="#DejaVuSans-76" transform="translate(1244.158203 0)"/>
     <use xlink:href="#DejaVuSans-65" transform="translate(1303.337891 0)"/>
     <use xlink:href="#DejaVuSans-66" transform="translate(1364.861328 0)"/>
     <use xlink:href="#DejaVuSans-6f" transform="translate(1400.066406 0)"/>
     <use xlink:href="#DejaVuSans-72" transform="translate(1461.248047 0)"/>
     <use xlink:href="#DejaVuSans-6d" transform="translate(1500.611328 0)"/>
    </g>
   </g>
   <g id="legend_1">
    <g id="patch_7">
     <path d="M 697.957812 241.04 
L 832.025 241.04 
Q 834.025 241.04 834.025 239.04 
L 834.025 196.005625 
Q 834.025 194.005625 832.025 194.005625 
L 697.957812 194.005625 
Q 695.957812 194.005625 695.957812 196.005625 
L 695.957812 239.04 
Q 695.957812 241.04 697.957812 241.04 
z
" style="fill: #ffffff; opacity: 0.8; stroke: #cccccc; stroke-linejoin: miter"/>
    </g>
    <g id="line2d_20">
     <path d="M 699.957812 202.104062 
L 709.957812 202.104062 
L 719.957812 202.104062 
" style="fill: none; stroke: #9ca3af; stroke-opacity: 0.95; stroke-width: 1.2; stroke-linecap: square"/>
    </g>
    <g id="text_20">
     <!-- no audio (reference) -->
     <g transform="translate(727.957812 205.604062) scale(0.1 -0.1)">
      <defs>
       <path id="DejaVuSans-75" d="M 544 1381 
L 544 3500 
L 1119 3500 
L 1119 1403 
Q 1119 906 1312 657 
Q 1506 409 1894 409 
Q 2359 409 2629 706 
Q 2900 1003 2900 1516 
L 2900 3500 
L 3475 3500 
L 3475 0 
L 2900 0 
L 2900 538 
Q 2691 219 2414 64 
Q 2138 -91 1772 -91 
Q 1169 -91 856 284 
Q 544 659 544 1381 
z
M 1991 3584 
L 1991 3584 
z
" transform="scale(0.015625)"/>
       <path id="DejaVuSans-63" d="M 3122 3366 
L 3122 2828 
Q 2878 2963 2633 3030 
Q 2388 3097 2138 3097 
Q 1578 3097 1268 2742 
Q 959 2388 959 1747 
Q 959 1106 1268 751 
Q 1578 397 2138 397 
Q 2388 397 2633 464 
Q 2878 531 3122 666 
L 3122 134 
Q 2881 22 2623 -34 
Q 2366 -91 2075 -91 
Q 1284 -91 818 406 
Q 353 903 353 1747 
Q 353 2603 823 3093 
Q 1294 3584 2113 3584 
Q 2378 3584 2631 3529 
Q 2884 3475 3122 3366 
z
" transform="scale(0.015625)"/>
      </defs>
      <use xlink:href="#DejaVuSans-6e"/>
      <use xlink:href="#DejaVuSans-6f" transform="translate(63.378906 0)"/>
      <use xlink:href="#DejaVuSans-20" transform="translate(124.560547 0)"/>
      <use xlink:href="#DejaVuSans-61" transform="translate(156.347656 0)"/>
      <use xlink:href="#DejaVuSans-75" transform="translate(217.626953 0)"/>
      <use xlink:href="#DejaVuSans-64" transform="translate(281.005859 0)"/>
      <use xlink:href="#DejaVuSans-69" transform="translate(344.482422 0)"/>
      <use xlink:href="#DejaVuSans-6f" transform="translate(372.265625 0)"/>
      <use xlink:href="#DejaVuSans-20" transform="translate(433.447266 0)"/>
      <use xlink:href="#DejaVuSans-28" transform="translate(465.234375 0)"/>
      <use xlink:href="#DejaVuSans-72" transform="translate(504.248047 0)"/>
      <use xlink:href="#DejaVuSans-65" transform="translate(543.111328 0)"/>
      <use xlink:href="#DejaVuSans-66" transform="translate(604.634766 0)"/>
      <use xlink:href="#DejaVuSans-65" transform="translate(639.839844 0)"/>
      <use xlink:href="#DejaVuSans-72" transform="translate(701.363281 0)"/>
      <use xlink:href="#DejaVuSans-65" transform="translate(740.226562 0)"/>
      <use xlink:href="#DejaVuSans-6e" transform="translate(801.75 0)"/>
      <use xlink:href="#DejaVuSans-63" transform="translate(865.128906 0)"/>
      <use xlink:href="#DejaVuSans-65" transform="translate(920.109375 0)"/>
      <use xlink:href="#DejaVuSans-29" transform="translate(981.632812 0)"/>
     </g>
    </g>
    <g id="line2d_21">
     <path d="M 699.957812 216.782187 
L 709.957812 216.782187 
L 719.957812 216.782187 
" style="fill: none; stroke: #2563eb; stroke-opacity: 0.98; stroke-width: 1.25; stroke-linecap: square"/>
    </g>
    <g id="text_21">
     <!-- without object -->
     <g transform="translate(727.957812 220.282187) scale(0.1 -0.1)">
      <defs>
       <path id="DejaVuSans-62" d="M 3116 1747 
Q 3116 2381 2855 2742 
Q 2594 3103 2138 3103 
Q 1681 3103 1420 2742 
Q 1159 2381 1159 1747 
Q 1159 1113 1420 752 
Q 1681 391 2138 391 
Q 2594 391 2855 752 
Q 3116 1113 3116 1747 
z
M 1159 2969 
Q 1341 3281 1617 3432 
Q 1894 3584 2278 3584 
Q 2916 3584 3314 3078 
Q 3713 2572 3713 1747 
Q 3713 922 3314 415 
Q 2916 -91 2278 -91 
Q 1894 -91 1617 61 
Q 1341 213 1159 525 
L 1159 0 
L 581 0 
L 581 4863 
L 1159 4863 
L 1159 2969 
z
" transform="scale(0.015625)"/>
       <path id="DejaVuSans-6a" d="M 603 3500 
L 1178 3500 
L 1178 -63 
Q 1178 -731 923 -1031 
Q 669 -1331 103 -1331 
L -116 -1331 
L -116 -844 
L 38 -844 
Q 366 -844 484 -692 
Q 603 -541 603 -63 
L 603 3500 
z
M 603 4863 
L 1178 4863 
L 1178 4134 
L 603 4134 
L 603 4863 
z
" transform="scale(0.015625)"/>
      </defs>
      <use xlink:href="#DejaVuSans-77"/>
      <use xlink:href="#DejaVuSans-69" transform="translate(81.787109 0)"/>
      <use xlink:href="#DejaVuSans-74" transform="translate(109.570312 0)"/>
      <use xlink:href="#DejaVuSans-68" transform="translate(148.779297 0)"/>
      <use xlink:href="#DejaVuSans-6f" transform="translate(212.158203 0)"/>
      <use xlink:href="#DejaVuSans-75" transform="translate(273.339844 0)"/>
      <use xlink:href="#DejaVuSans-74" transform="translate(336.71875 0)"/>
      <use xlink:href="#DejaVuSans-20" transform="translate(375.927734 0)"/>
      <use xlink:href="#DejaVuSans-6f" transform="translate(407.714844 0)"/>
      <use xlink:href="#DejaVuSans-62" transform="translate(468.896484 0)"/>
      <use xlink:href="#DejaVuSans-6a" transform="translate(532.373047 0)"/>
      <use xlink:href="#DejaVuSans-65" transform="translate(560.15625 0)"/>
      <use xlink:href="#DejaVuSans-63" transform="translate(621.679688 0)"/>
      <use xlink:href="#DejaVuSans-74" transform="translate(676.660156 0)"/>
     </g>
    </g>
    <g id="line2d_22">
     <path d="M 699.957812 231.460312 
L 709.957812 231.460312 
L 719.957812 231.460312 
" style="fill: none; stroke: #dc2626; stroke-opacity: 0.98; stroke-width: 1.25; stroke-linecap: square"/>
    </g>
    <g id="text_22">
     <!-- with object -->
     <g transform="translate(727.957812 234.960312) scale(0.1 -0.1)">
      <use xlink:href="#DejaVuSans-77"/>
      <use xlink:href="#DejaVuSans-69" transform="translate(81.787109 0)"/>
      <use xlink:href="#DejaVuSans-74" transform="translate(109.570312 0)"/>
      <use xlink:href="#DejaVuSans-68" transform="translate(148.779297 0)"/>
      <use xlink:href="#DejaVuSans-20" transform="translate(212.158203 0)"/>
      <use xlink:href="#DejaVuSans-6f" transform="translate(243.945312 0)"/>
      <use xlink:href="#DejaVuSans-62" transform="translate(305.126953 0)"/>
      <use xlink:href="#DejaVuSans-6a" transform="translate(368.603516 0)"/>
      <use xlink:href="#DejaVuSans-65" transform="translate(396.386719 0)"/>
      <use xlink:href="#DejaVuSans-63" transform="translate(457.910156 0)"/>
      <use xlink:href="#DejaVuSans-74" transform="translate(512.890625 0)"/>
     </g>
    </g>
   </g>
  </g>
 </g>
 <defs>
  <clipPath id="p693550a403">
   <rect x="62.39" y="26.88" width="776.635" height="219.16"/>
  </clipPath>
 </defs>
</svg>
