<svg xmlns="http://www.w3.org/2000/svg" width="1200" height="480" viewBox="0 0 1200 480">
<rect width="100%" height="100%" fill="white"/>
<text x="600.0" y="28" text-anchor="middle" font-size="22" font-family="Arial">Representative 100Hz Waveform (0.20s, Reference Included)</text>
<line x1="80.00" y1="55" x2="80.00" y2="415" stroke="#e5e7eb" stroke-width="1"/>
<text x="80.00" y="456" text-anchor="middle" font-size="12" font-family="Arial" fill="#374151">0</text>
<line x1="298.00" y1="55" x2="298.00" y2="415" stroke="#e5e7eb" stroke-width="1"/>
<text x="298.00" y="456" text-anchor="middle" font-size="12" font-family="Arial" fill="#374151">0.04</text>
<line x1="516.00" y1="55" x2="516.00" y2="415" stroke="#e5e7eb" stroke-width="1"/>
<text x="516.00" y="456" text-anchor="middle" font-size="12" font-family="Arial" fill="#374151">0.08</text>
<line x1="734.00" y1="55" x2="734.00" y2="415" stroke="#e5e7eb" stroke-width="1"/>
<text x="734.00" y="456" text-anchor="middle" font-size="12" font-family="Arial" fill="#374151">0.12</text>
<line x1="952.00" y1="55" x2="952.00" y2="415" stroke="#e5e7eb" stroke-width="1"/>
<text x="952.00" y="456" text-anchor="middle" font-size="12" font-family="Arial" fill="#374151">0.16</text>
<line x1="1170.00" y1="55" x2="1170.00" y2="415" stroke="#e5e7eb" stroke-width="1"/>
<text x="1170.00" y="456" text-anchor="middle" font-size="12" font-family="Arial" fill="#374151">0.20</text>
<line x1="80" y1="415.00" x2="1170" y2="415.00" stroke="#e5e7eb" stroke-width="1"/>
<text x="68" y="419.00" text-anchor="end" font-size="12" font-family="Arial" fill="#374151">-0.32</text>
<line x1="80" y1="343.00" x2="1170" y2="343.00" stroke="#e5e7eb" stroke-width="1"/>
<text x="68" y="347.00" text-anchor="end" font-size="12" font-family="Arial" fill="#374151">-0.19</text>
<line x1="80" y1="271.00" x2="1170" y2="271.00" stroke="#e5e7eb" stroke-width="1"/>
<text x="68" y="275.00" text-anchor="end" font-size="12" font-family="Arial" fill="#374151">-0.06</text>
<line x1="80" y1="199.00" x2="1170" y2="199.00" stroke="#e5e7eb" stroke-width="1"/>
<text x="68" y="203.00" text-anchor="end" font-size="12" font-family="Arial" fill="#374151">0.06</text>
<line x1="80" y1="127.00" x2="1170" y2="127.00" stroke="#e5e7eb" stroke-width="1"/>
<text x="68" y="131.00" text-anchor="end" font-size="12" font-family="Arial" fill="#374151">0.19</text>
<line x1="80" y1="55.00" x2="1170" y2="55.00" stroke="#e5e7eb" stroke-width="1"/>
<text x="68" y="59.00" text-anchor="end" font-size="12" font-family="Arial" fill="#374151">0.32</text>
<line x1="80" y1="415" x2="1170" y2="415" stroke="#111827" stroke-width="1.2"/>
<line x1="80" y1="55" x2="80" y2="415" stroke="#111827" stroke-width="1.2"/>
<line x1="80" y1="40" x2="102" y2="40" stroke="#9ca3af" stroke-width="3"/>
<text x="108" y="44" font-size="13" font-family="Arial" fill="#111827">no audio (reference)</text>
<line x1="270" y1="40" x2="292" y2="40" stroke="#2563eb" stroke-width="3"/>
<text x="298" y="44" font-size="13" font-family="Arial" fill="#111827">without object</text>
<line x1="460" y1="40" x2="482" y2="40" stroke="#dc2626" stroke-width="3"/>
<text x="488" y="44" font-size="13" font-family="Arial" fill="#111827">with object</text>
<polyline fill="none" stroke="#9ca3af" stroke-width="1.4" points="80.00,234.12 80.61,234.17 81.21,234.54 81.82,235.07 82.42,235.55 83.03,235.81 83.63,235.74 84.24,235.39 84.84,234.90 85.45,234.47 86.06,234.26 86.66,234.35 87.27,234.69 87.87,235.13 88.48,235.50 89.08,235.66 89.69,235.55 90.29,235.23 90.90,234.84 91.51,234.52 92.11,234.41 92.72,234.54 93.32,234.84 93.93,235.19 94.53,235.45 95.14,235.51 95.74,235.37 96.35,235.08 96.96,234.78 97.56,234.58 98.17,234.56 98.77,234.72 99.38,234.99 99.98,235.25 100.59,235.40 101.19,235.37 101.80,235.18 102.41,234.93 103.01,234.72 103.62,234.63 104.22,234.71 104.83,234.91 105.43,235.14 106.04,235.31 106.64,235.34 107.25,235.22 107.86,235.00 108.46,234.78 109.07,234.66 109.67,234.68 110.28,234.85 110.88,235.09 111.49,235.29 112.09,235.37 112.70,235.28 113.31,235.07 113.91,234.81 114.52,234.63 115.12,234.60 115.73,234.74 116.33,235.00 116.94,235.28 117.54,235.44 118.15,235.43 118.76,235.23 119.36,234.92 119.97,234.63 120.57,234.48 121.18,234.54 121.78,234.80 122.39,235.15 122.99,235.46 123.60,235.59 124.21,235.48 124.81,235.17 125.42,234.77 126.02,234.45 126.63,234.34 127.23,234.49 127.84,234.86 128.44,235.30 129.05,235.64 129.66,235.73 130.26,235.53 130.87,235.11 131.47,234.63 132.08,234.27 132.68,234.19 133.29,234.44 133.89,234.92 134.50,235.44 135.11,235.82 135.71,235.87 136.32,235.58 136.92,235.05 137.53,234.48 138.13,234.10 138.74,234.06 139.34,234.39 139.95,234.97 140.56,235.59 141.16,235.99 141.77,236.01 142.37,235.63 142.98,234.99 143.58,234.34 144.19,233.92 144.79,233.92 145.40,234.34 146.01,235.04 146.61,235.73 147.22,236.16 147.82,236.14 148.43,235.67 149.03,234.93 149.64,234.20 150.24,233.76 150.85,233.79 151.46,234.30 152.06,235.10 152.67,235.87 153.27,236.32 153.88,236.26 154.48,235.71 155.09,234.87 155.69,234.06 156.30,233.60 156.91,233.67 157.51,234.27 158.12,235.16 158.72,236.01 159.33,236.48 159.93,236.38 160.54,235.75 161.14,234.81 161.75,233.92 162.36,233.44 162.96,233.56 163.57,234.24 164.17,235.22 164.78,236.14 165.38,236.63 165.99,236.50 166.59,235.78 167.20,234.74 167.81,233.79 168.41,233.29 169.02,233.45 169.62,234.21 170.23,235.29 170.83,236.27 171.44,236.78 172.04,236.60 172.65,235.80 173.26,234.68 173.86,233.66 174.47,233.15 175.07,233.34 175.68,234.19 176.28,235.36 176.89,236.40 177.49,236.92 178.10,236.70 178.71,235.82 179.31,234.61 179.92,233.53 180.52,233.01 181.13,233.25 181.73,234.17 182.34,235.42 182.94,236.53 183.55,237.06 184.16,236.79 184.76,235.84 185.37,234.54 185.97,233.41 186.58,232.88 187.18,233.16 187.79,234.16 188.39,235.49 189.00,236.65 189.61,237.18 190.21,236.88 190.82,235.84 191.42,234.47 192.03,233.29 192.63,232.75 193.24,233.08 193.84,234.15 194.45,235.56 195.06,236.77 195.66,237.30 196.27,236.95 196.87,235.85 197.48,234.40 198.08,233.17 198.69,232.64 199.29,233.01 199.90,234.15 200.51,235.63 201.11,236.88 201.72,237.41 202.32,237.02 202.93,235.84 203.53,234.33 204.14,233.06 204.74,232.53 205.35,232.95 205.96,234.16 206.56,235.70 207.17,236.99 207.77,237.52 208.38,237.08 208.98,235.84 209.59,234.26 210.19,232.96 210.80,232.43 211.41,232.89 212.01,234.17 212.62,235.77 213.22,237.09 213.83,237.61 214.43,237.13 215.04,235.82 215.64,234.19 216.25,232.85 216.86,232.34 217.46,232.85 218.07,234.19 218.67,235.85 219.28,237.19 219.88,237.70 220.49,237.17 221.09,235.80 221.70,234.11 222.31,232.75 222.91,232.25 223.52,232.81 224.12,234.21 224.73,235.92 225.33,237.29 225.94,237.78 226.54,237.20 227.15,235.77 227.76,234.04 228.36,232.66 228.97,232.18 229.57,232.78 230.18,234.24 230.78,236.00 231.39,237.38 231.99,237.85 232.60,237.23 233.21,235.74 233.81,233.96 234.42,232.57 235.02,232.11 235.63,232.76 236.23,234.27 236.84,236.08 237.44,237.47 238.05,237.92 238.66,237.24 239.26,235.70 239.87,233.88 240.47,232.49 241.08,232.05 241.68,232.75 242.29,234.32 242.89,236.15 243.50,237.55 244.11,237.97 244.71,237.25 245.32,235.66 245.92,233.81 246.53,232.41 247.13,232.00 247.74,232.74 248.34,234.36 248.95,236.23 249.56,237.63 250.16,238.02 250.77,237.25 251.37,235.61 251.98,233.73 252.58,232.33 253.19,231.95 253.79,232.75 254.40,234.41 255.01,236.31 255.61,237.70 256.22,238.06 256.82,237.24 257.43,235.56 258.03,233.65 258.64,232.26 259.24,231.92 259.85,232.76 260.46,234.47 261.06,236.39 261.67,237.77 262.27,238.10 262.88,237.23 263.48,235.50 264.09,233.57 264.69,232.19 265.30,231.89 265.91,232.78 266.51,234.53 267.12,236.46 267.72,237.84 268.33,238.12 268.93,237.21 269.54,235.44 270.14,233.49 270.75,232.13 271.36,231.86 271.96,232.80 272.57,234.59 273.17,236.54 273.78,237.90 274.38,238.14 274.99,237.18 275.59,235.37 276.20,233.42 276.81,232.07 277.41,231.85 278.02,232.84 278.62,234.66 279.23,236.62 279.83,237.96 280.44,238.16 281.04,237.14 281.65,235.30 282.26,233.34 282.86,232.01 283.47,231.84 284.07,232.88 284.68,234.73 285.28,236.70 285.89,238.01 286.49,238.16 287.10,237.10 287.71,235.23 288.31,233.26 288.92,231.96 289.52,231.83 290.13,232.92 290.73,234.81 291.34,236.77 291.94,238.06 292.55,238.17 293.16,237.05 293.76,235.15 294.37,233.18 294.97,231.92 295.58,231.83 296.18,232.97 296.79,234.89 297.39,236.85 298.00,238.10 298.61,238.16 299.21,237.00 299.82,235.07 300.42,233.11 301.03,231.87 301.63,231.84 302.24,233.02 302.84,234.97 303.45,236.92 304.06,238.14 304.66,238.15 305.27,236.95 305.87,234.99 306.48,233.04 307.08,231.83 307.69,231.85 308.29,233.08 308.90,235.05 309.51,237.00 310.11,238.18 310.72,238.14 311.32,236.89 311.93,234.91 312.53,232.96 313.14,231.80 313.74,231.87 314.35,233.14 314.96,235.13 315.56,237.07 316.17,238.21 316.77,238.12 317.38,236.83 317.98,234.83 318.59,232.89 319.19,231.77 319.80,231.89 320.41,233.20 321.01,235.21 321.62,237.14 322.22,238.24 322.83,238.10 323.43,236.76 324.04,234.75 324.64,232.83 325.25,231.74 325.86,231.91 326.46,233.27 327.07,235.29 327.67,237.21 328.28,238.27 328.88,238.07 329.49,236.70 330.09,234.66 330.70,232.76 331.31,231.72 331.91,231.94 332.52,233.33 333.12,235.37 333.73,237.27 334.33,238.29 334.94,238.05 335.54,236.63 336.15,234.58 336.76,232.70 337.36,231.69 337.97,231.96 338.57,233.40 339.18,235.45 339.78,237.33 340.39,238.31 340.99,238.02 341.60,236.56 342.21,234.50 342.81,232.64 343.42,231.68 344.02,232.00 344.63,233.47 345.23,235.53 345.84,237.39 346.44,238.33 347.05,237.99 347.66,236.49 348.26,234.43 348.87,232.58 349.47,231.66 350.08,232.03 350.68,233.54 351.29,235.61 351.89,237.45 352.50,238.34 353.11,237.95 353.71,236.43 354.32,234.35 354.92,232.53 355.53,231.65 356.13,232.06 356.74,233.60 357.34,235.68 357.95,237.50 358.56,238.35 359.16,237.92 359.77,236.36 360.37,234.28 360.98,232.48 361.58,231.64 362.19,232.10 362.79,233.67 363.40,235.75 364.01,237.54 364.61,238.36 365.22,237.88 365.82,236.30 366.43,234.21 367.03,232.43 367.64,231.64 368.24,232.13 368.85,233.73 369.46,235.82 370.06,237.59 370.67,238.36 371.27,237.85 371.88,236.23 372.48,234.15 373.09,232.39 373.69,231.63 374.30,232.17 374.91,233.79 375.51,235.88 376.12,237.63 376.72,238.36 377.33,237.81 377.93,236.17 378.54,234.09 379.14,232.35 379.75,231.63 380.36,232.21 380.96,233.85 381.57,235.94 382.17,237.66 382.78,238.36 383.38,237.77 383.99,236.12 384.59,234.03 385.20,232.32 385.81,231.64 386.41,232.24 387.02,233.90 387.62,235.99 388.23,237.69 388.83,238.36 389.44,237.74 390.04,236.07 390.65,233.99 391.26,232.29 391.86,231.64 392.47,232.28 393.07,233.95 393.68,236.03 394.28,237.71 394.89,238.35 395.49,237.70 396.10,236.02 396.71,233.94 397.31,232.27 397.92,231.65 398.52,232.31 399.13,234.00 399.73,236.07 400.34,237.73 400.94,238.34 401.55,237.67 402.16,235.98 402.76,233.91 403.37,232.26 403.97,231.66 404.58,232.34 405.18,234.04 405.79,236.11 406.39,237.75 407.00,238.33 407.61,237.64 408.21,235.94 408.82,233.88 409.42,232.25 410.03,231.67 410.63,232.37 411.24,234.08 411.84,236.13 412.45,237.75 413.06,238.32 413.66,237.61 414.27,235.90 414.87,233.85 415.48,232.24 416.08,231.69 416.69,232.40 417.29,234.11 417.90,236.15 418.51,237.76 419.11,238.30 419.72,237.58 420.32,235.88 420.93,233.84 421.53,232.24 422.14,231.70 422.74,232.43 423.35,234.13 423.96,236.17 424.56,237.75 425.17,238.28 425.77,237.56 426.38,235.85 426.98,233.83 427.59,232.25 428.19,231.72 428.80,232.45 429.41,234.15 430.01,236.17 430.62,237.74 431.22,238.26 431.83,237.53 432.43,235.84 433.04,233.82 433.64,232.26 434.25,231.75 434.86,232.48 435.46,234.17 436.07,236.17 436.67,237.73 437.28,238.24 437.88,237.51 438.49,235.83 439.09,233.83 439.70,232.28 440.31,231.77 440.91,232.50 441.52,234.17 442.12,236.16 442.73,237.71 443.33,238.21 443.94,237.49 444.54,235.82 445.15,233.84 445.76,232.30 446.36,231.80 446.97,232.51 447.57,234.18 448.18,236.15 448.78,237.68 449.39,238.18 449.99,237.47 450.60,235.82 451.21,233.86 451.81,232.33 452.42,231.83 453.02,232.53 453.63,234.17 454.23,236.12 454.84,237.64 455.44,238.15 456.05,237.46 456.66,235.83 457.26,233.89 457.87,232.37 458.47,231.86 459.08,232.54 459.68,234.16 460.29,236.09 460.89,237.61 461.50,238.12 462.11,237.45 462.71,235.84 463.32,233.92 463.92,232.41 464.53,231.89 465.13,232.56 465.74,234.15 466.34,236.06 466.95,237.56 467.56,238.08 468.16,237.43 468.77,235.86 469.37,233.96 469.98,232.46 470.58,231.93 471.19,232.57 471.79,234.13 472.40,236.01 473.01,237.51 473.61,238.05 474.22,237.43 474.82,235.88 475.43,234.01 476.03,232.52 476.64,231.97 477.24,232.58 477.85,234.10 478.46,235.96 479.06,237.45 479.67,238.01 480.27,237.42 480.88,235.91 481.48,234.06 482.09,232.58 482.69,232.01 483.30,232.58 483.91,234.07 484.51,235.90 485.12,237.39 485.72,237.96 486.33,237.41 486.93,235.95 487.54,234.13 488.14,232.64 488.75,232.05 489.36,232.59 489.96,234.03 490.57,235.84 491.17,237.32 491.78,237.92 492.38,237.41 492.99,235.99 493.59,234.19 494.20,232.71 494.81,232.10 495.41,232.59 496.02,233.99 496.62,235.77 497.23,237.25 497.83,237.87 498.44,237.41 499.04,236.03 499.65,234.26 500.26,232.79 500.86,232.15 501.47,232.59 502.07,233.95 502.68,235.69 503.28,237.17 503.89,237.82 504.49,237.40 505.10,236.07 505.71,234.34 506.31,232.86 506.92,232.20 507.52,232.59 508.13,233.90 508.73,235.61 509.34,237.09 509.94,237.77 510.55,237.40 511.16,236.12 511.76,234.43 512.37,232.95 512.97,232.25 513.58,232.59 514.18,233.85 514.79,235.53 515.39,237.01 516.00,237.72 516.61,237.40 517.21,236.18 517.82,234.51 518.42,233.04 519.03,232.31 519.63,232.60 520.24,233.79 520.84,235.44 521.45,236.92 522.06,237.66 522.66,237.40 523.27,236.23 523.87,234.60 524.48,233.13 525.08,232.36 525.69,232.60 526.29,233.73 526.90,235.35 527.51,236.82 528.11,237.61 528.72,237.40 529.32,236.29 529.93,234.70 530.53,233.22 531.14,232.42 531.74,232.60 532.35,233.68 532.96,235.25 533.56,236.73 534.17,237.55 534.77,237.40 535.38,236.35 535.98,234.80 536.59,233.32 537.19,232.48 537.80,232.60 538.41,233.61 539.01,235.15 539.62,236.63 540.22,237.48 540.83,237.40 541.43,236.41 542.04,234.90 542.64,233.42 543.25,232.55 543.86,232.60 544.46,233.55 545.07,235.05 545.67,236.52 546.28,237.42 546.88,237.40 547.49,236.47 548.09,235.00 548.70,233.52 549.31,232.61 549.91,232.60 550.52,233.49 551.12,234.95 551.73,236.42 552.33,237.35 552.94,237.40 553.54,236.54 554.15,235.10 554.76,233.63 555.36,232.68 555.97,232.60 556.57,233.43 557.18,234.85 557.78,236.32 558.39,237.29 558.99,237.39 559.60,236.60 560.21,235.20 560.81,233.74 561.42,232.75 562.02,232.61 562.63,233.37 563.23,234.74 563.84,236.21 564.44,237.22 565.05,237.39 565.66,236.66 566.26,235.31 566.87,233.84 567.47,232.82 568.08,232.62 568.68,233.31 569.29,234.64 569.89,236.10 570.50,237.14 571.11,237.38 571.71,236.72 572.32,235.41 572.92,233.95 573.53,232.89 574.13,232.62 574.74,233.25 575.34,234.54 575.95,235.99 576.56,237.07 577.16,237.37 577.77,236.77 578.37,235.51 578.98,234.06 579.58,232.96 580.19,232.63 580.79,233.20 581.40,234.44 582.01,235.89 582.61,237.00 583.22,237.36 583.82,236.83 584.43,235.61 585.03,234.17 585.64,233.04 586.24,232.65 586.85,233.14 587.46,234.34 588.06,235.78 588.67,236.92 589.27,237.34 589.88,236.88 590.48,235.71 591.09,234.27 591.69,233.11 592.30,232.66 592.91,233.09 593.51,234.24 594.12,235.67 594.72,236.85 595.33,237.32 595.93,236.93 596.54,235.80 597.14,234.38 597.75,233.19 598.36,232.68 598.96,233.05 599.57,234.15 600.17,235.57 600.78,236.77 601.38,237.30 601.99,236.97 602.59,235.90 603.20,234.48 603.81,233.27 604.41,232.70 605.02,233.01 605.62,234.06 606.23,235.46 606.83,236.69 607.44,237.28 608.04,237.01 608.65,235.98 609.26,234.59 609.86,233.35 610.47,232.73 611.07,232.97 611.68,233.97 612.28,235.36 612.89,236.61 613.49,237.25 614.10,237.05 614.71,236.07 615.31,234.69 615.92,233.42 616.52,232.76 617.13,232.93 617.73,233.89 618.34,235.26 618.94,236.53 619.55,237.22 620.16,237.08 620.76,236.15 621.37,234.78 621.97,233.50 622.58,232.79 623.18,232.91 623.79,233.81 624.39,235.17 625.00,236.45 625.61,237.19 626.21,237.10 626.82,236.22 627.42,234.88 628.03,233.58 628.63,232.82 629.24,232.88 629.84,233.74 630.45,235.07 631.06,236.37 631.66,237.16 632.27,237.12 632.87,236.29 633.48,234.97 634.08,233.66 634.69,232.86 635.29,232.87 635.90,233.68 636.51,234.98 637.11,236.29 637.72,237.12 638.32,237.14 638.93,236.35 639.53,235.06 640.14,233.74 640.74,232.90 641.35,232.85 641.96,233.62 642.56,234.90 643.17,236.21 643.77,237.07 644.38,237.15 644.98,236.41 645.59,235.14 646.19,233.82 646.80,232.95 647.41,232.85 648.01,233.56 648.62,234.82 649.22,236.14 649.83,237.03 650.43,237.15 651.04,236.46 651.64,235.22 652.25,233.90 652.86,233.00 653.46,232.85 654.07,233.51 654.67,234.74 655.28,236.06 655.88,236.98 656.49,237.15 657.09,236.50 657.70,235.30 658.31,233.98 658.91,233.05 659.52,232.86 660.12,233.47 660.73,234.67 661.33,235.98 661.94,236.92 662.54,237.14 663.15,236.54 663.76,235.37 664.36,234.05 664.97,233.10 665.57,232.87 666.18,233.44 666.78,234.60 667.39,235.90 667.99,236.87 668.60,237.12 669.21,236.57 669.81,235.43 670.42,234.13 671.02,233.16 671.63,232.89 672.23,233.41 672.84,234.54 673.44,235.83 674.05,236.81 674.66,237.10 675.26,236.60 675.87,235.49 676.47,234.20 677.08,233.22 677.68,232.91 678.29,233.39 678.89,234.48 679.50,235.76 680.11,236.75 680.71,237.07 681.32,236.61 681.92,235.55 682.53,234.28 683.13,233.28 683.74,232.94 684.34,233.38 684.95,234.43 685.56,235.69 686.16,236.68 686.77,237.04 687.37,236.62 687.98,235.60 688.58,234.35 689.19,233.35 689.79,232.98 690.40,233.37 691.01,234.38 691.61,235.62 692.22,236.61 692.82,237.00 693.43,236.63 694.03,235.64 694.64,234.42 695.24,233.42 695.85,233.02 696.46,233.37 697.06,234.34 697.67,235.55 698.27,236.55 698.88,236.95 699.48,236.62 700.09,235.68 700.69,234.48 701.30,233.49 701.91,233.07 702.51,233.38 703.12,234.30 703.72,235.48 704.33,236.47 704.93,236.90 705.54,236.61 706.14,235.71 706.75,234.55 707.36,233.56 707.96,233.12 708.57,233.39 709.17,234.27 709.78,235.42 710.38,236.40 710.99,236.85 711.59,236.59 712.20,235.74 712.81,234.61 713.41,233.63 714.02,233.18 714.62,233.42 715.23,234.25 715.83,235.36 716.44,236.33 717.04,236.79 717.65,236.57 718.26,235.76 718.86,234.67 719.47,233.71 720.07,233.24 720.68,233.44 721.28,234.23 721.89,235.30 722.49,236.25 723.10,236.72 723.71,236.54 724.31,235.77 724.92,234.72 725.52,233.78 726.13,233.31 726.73,233.48 727.34,234.22 727.94,235.25 728.55,236.18 729.16,236.65 729.76,236.50 730.37,235.78 730.97,234.78 731.58,233.86 732.18,233.38 732.79,233.51 733.39,234.21 734.00,235.20 734.61,236.10 735.21,236.58 735.82,236.46 736.42,235.79 737.03,234.83 737.63,233.93 738.24,233.45 738.84,233.56 739.45,234.21 740.06,235.15 740.66,236.02 741.27,236.51 741.87,236.41 742.48,235.79 743.08,234.87 743.69,234.01 744.29,233.53 744.90,233.61 745.51,234.21 746.11,235.10 746.72,235.95 747.32,236.43 747.93,236.36 748.53,235.78 749.14,234.92 749.74,234.09 750.35,233.61 750.96,233.66 751.56,234.22 752.17,235.06 752.77,235.87 753.38,236.35 753.98,236.31 754.59,235.77 755.19,234.96 755.80,234.16 756.41,233.69 757.01,233.72 757.62,234.23 758.22,235.02 758.83,235.80 759.43,236.26 760.04,236.25 760.64,235.76 761.25,234.99 761.86,234.24 762.46,233.78 763.07,233.78 763.67,234.25 764.28,234.99 764.88,235.72 765.49,236.18 766.09,236.18 766.70,235.74 767.31,235.03 767.91,234.31 768.52,233.86 769.12,233.85 769.73,234.27 770.33,234.96 770.94,235.65 771.54,236.09 772.15,236.11 772.76,235.72 773.36,235.05 773.97,234.38 774.57,233.95 775.18,233.92 775.78,234.29 776.39,234.93 776.99,235.58 777.60,236.00 778.21,236.04 778.81,235.69 779.42,235.08 780.02,234.45 780.63,234.04 781.23,233.99 781.84,234.32 782.44,234.90 783.05,235.51 783.66,235.92 784.26,235.97 784.87,235.66 785.47,235.10 786.08,234.52 786.68,234.13 787.29,234.07 787.89,234.36 788.50,234.88 789.11,235.44 789.71,235.83 790.32,235.89 790.92,235.62 791.53,235.12 792.13,234.59 792.74,234.21 793.34,234.14 793.95,234.39 794.56,234.87 795.16,235.38 795.77,235.74 796.37,235.82 796.98,235.59 797.58,235.14 798.19,234.65 798.79,234.30 799.40,234.22 800.01,234.43 800.61,234.85 801.22,235.32 801.82,235.66 802.43,235.74 803.03,235.55 803.64,235.15 804.24,234.71 804.85,234.38 805.46,234.30 806.06,234.47 806.67,234.84 807.27,235.26 807.88,235.57 808.48,235.66 809.09,235.50 809.69,235.16 810.30,234.77 810.91,234.47 811.51,234.37 812.12,234.52 812.72,234.83 813.33,235.20 813.93,235.49 814.54,235.58 815.14,235.46 815.75,235.17 816.36,234.82 816.96,234.55 817.57,234.45 818.17,234.56 818.78,234.83 819.38,235.15 819.99,235.41 820.59,235.51 821.20,235.41 821.81,235.17 822.41,234.87 823.02,234.63 823.62,234.53 824.23,234.61 824.83,234.83 825.44,235.10 826.04,235.33 826.65,235.43 827.26,235.36 827.86,235.17 828.47,234.92 829.07,234.70 829.68,234.61 830.28,234.66 830.89,234.83 831.49,235.06 832.10,235.26 832.71,235.35 833.31,235.32 833.92,235.17 834.52,234.96 835.13,234.78 835.73,234.68 836.34,234.71 836.94,234.83 837.55,235.02 838.16,235.18 838.76,235.28 839.37,235.27 839.97,235.16 840.58,235.00 841.18,234.85 841.79,234.76 842.39,234.76 843.00,234.84 843.61,234.98 844.21,235.12 844.82,235.20 845.42,235.22 846.03,235.15 846.63,235.04 847.24,234.91 847.84,234.83 848.45,234.81 849.06,234.85 849.66,234.94 850.27,235.05 850.87,235.13 851.48,235.17 852.08,235.14 852.69,235.07 853.29,234.98 853.90,234.90 854.51,234.85 855.11,234.86 855.72,234.91 856.32,234.99 856.93,235.07 857.53,235.12 858.14,235.13 858.74,235.10 859.35,235.04 859.96,234.96 860.56,234.90 861.17,234.88 861.77,234.89 862.38,234.93 862.98,235.00 863.59,235.07 864.19,235.11 864.80,235.12 865.41,235.09 866.01,235.03 866.62,234.95 867.22,234.89 867.83,234.86 868.43,234.88 869.04,234.94 869.64,235.02 870.25,235.10 870.86,235.14 871.46,235.14 872.07,235.09 872.67,235.00 873.28,234.91 873.88,234.84 874.49,234.83 875.09,234.88 875.70,234.97 876.31,235.08 876.91,235.16 877.52,235.19 878.12,235.14 878.73,235.05 879.33,234.92 879.94,234.83 880.54,234.79 881.15,234.83 881.76,234.93 882.36,235.06 882.97,235.18 883.57,235.23 884.18,235.20 884.78,235.09 885.39,234.94 885.99,234.81 886.60,234.75 887.21,234.77 887.81,234.89 888.42,235.04 889.02,235.19 889.63,235.27 890.23,235.25 890.84,235.13 891.44,234.96 892.05,234.80 892.66,234.71 893.26,234.73 893.87,234.85 894.47,235.02 895.08,235.20 895.68,235.30 896.29,235.29 896.89,235.17 897.50,234.98 898.11,234.80 898.71,234.68 899.32,234.68 899.92,234.81 900.53,235.00 901.13,235.20 901.74,235.33 902.34,235.33 902.95,235.21 903.56,235.00 904.16,234.79 904.77,234.65 905.37,234.65 905.98,234.77 906.58,234.98 907.19,235.21 907.79,235.36 908.40,235.37 909.01,235.24 909.61,235.02 910.22,234.79 910.82,234.63 911.43,234.61 912.03,234.74 912.64,234.96 913.24,235.21 913.85,235.38 914.46,235.40 915.06,235.28 915.67,235.04 916.27,234.79 916.88,234.61 917.48,234.58 918.09,234.71 918.69,234.95 919.30,235.21 919.91,235.39 920.51,235.43 921.12,235.31 921.72,235.06 922.33,234.79 922.93,234.60 923.54,234.55 924.14,234.68 924.75,234.93 925.36,235.20 925.96,235.41 926.57,235.46 927.17,235.33 927.78,235.08 928.38,234.80 928.99,234.59 929.59,234.53 930.20,234.65 930.81,234.91 931.41,235.20 932.02,235.42 932.62,235.48 933.23,235.35 933.83,235.10 934.44,234.80 935.04,234.58 935.65,234.51 936.26,234.63 936.86,234.89 937.47,235.19 938.07,235.42 938.68,235.49 939.28,235.37 939.89,235.11 940.49,234.81 941.10,234.57 941.71,234.50 942.31,234.62 942.92,234.88 943.52,235.19 944.13,235.43 944.73,235.50 945.34,235.39 945.94,235.13 946.55,234.81 947.16,234.57 947.76,234.49 948.37,234.60 948.97,234.87 949.58,235.18 950.18,235.43 950.79,235.51 951.39,235.40 952.00,235.14 952.61,234.82 953.21,234.57 953.82,234.48 954.42,234.59 955.03,234.85 955.63,235.17 956.24,235.42 956.84,235.52 957.45,235.41 958.06,235.15 958.66,234.83 959.27,234.57 959.87,234.48 960.48,234.58 961.08,234.85 961.69,235.16 962.29,235.42 962.90,235.52 963.51,235.41 964.11,235.16 964.72,234.84 965.32,234.58 965.93,234.48 966.53,234.58 967.14,234.84 967.74,235.16 968.35,235.41 968.96,235.51 969.56,235.42 970.17,235.16 970.77,234.84 971.38,234.59 971.98,234.49 972.59,234.58 973.19,234.84 973.80,235.15 974.41,235.41 975.01,235.51 975.62,235.41 976.22,235.16 976.83,234.85 977.43,234.59 978.04,234.49 978.64,234.59 979.25,234.84 979.86,235.15 980.46,235.40 981.07,235.50 981.67,235.41 982.28,235.16 982.88,234.85 983.49,234.60 984.09,234.50 984.70,234.59 985.31,234.84 985.91,235.14 986.52,235.39 987.12,235.49 987.73,235.40 988.33,235.16 988.94,234.86 989.54,234.61 990.15,234.52 990.76,234.60 991.36,234.84 991.97,235.14 992.57,235.38 993.18,235.47 993.78,235.39 994.39,235.15 994.99,234.86 995.60,234.62 996.21,234.53 996.81,234.62 997.42,234.85 998.02,235.14 998.63,235.37 999.23,235.46 999.84,235.37 1000.44,235.14 1001.05,234.86 1001.66,234.63 1002.26,234.55 1002.87,234.64 1003.47,234.86 1004.08,235.14 1004.68,235.36 1005.29,235.44 1005.89,235.35 1006.50,235.12 1007.11,234.85 1007.71,234.64 1008.32,234.57 1008.92,234.66 1009.53,234.88 1010.13,235.15 1010.74,235.35 1011.34,235.42 1011.95,235.33 1012.56,235.11 1013.16,234.85 1013.77,234.65 1014.37,234.58 1014.98,234.68 1015.58,234.90 1016.19,235.15 1016.79,235.35 1017.40,235.40 1018.01,235.30 1018.61,235.09 1019.22,234.84 1019.82,234.65 1020.43,234.61 1021.03,234.71 1021.64,234.92 1022.24,235.17 1022.85,235.34 1023.46,235.38 1024.06,235.27 1024.67,235.06 1025.27,234.82 1025.88,234.66 1026.48,234.63 1027.09,234.74 1027.69,234.95 1028.30,235.18 1028.91,235.34 1029.51,235.36 1030.12,235.24 1030.72,235.03 1031.33,234.81 1031.93,234.66 1032.54,234.65 1033.14,234.77 1033.75,234.98 1034.36,235.20 1034.96,235.33 1035.57,235.34 1036.17,235.21 1036.78,235.00 1037.38,234.79 1037.99,234.66 1038.59,234.67 1039.20,234.81 1039.81,235.02 1040.41,235.22 1041.02,235.33 1041.62,235.32 1042.23,235.17 1042.83,234.96 1043.44,234.77 1044.04,234.66 1044.65,234.69 1045.26,234.84 1045.86,235.06 1046.47,235.24 1047.07,235.34 1047.68,235.29 1048.28,235.13 1048.89,234.92 1049.49,234.74 1050.10,234.66 1050.71,234.71 1051.31,234.88 1051.92,235.10 1052.52,235.27 1053.13,235.34 1053.73,235.27 1054.34,235.09 1054.94,234.88 1055.55,234.71 1056.16,234.65 1056.76,234.74 1057.37,234.92 1057.97,235.14 1058.58,235.31 1059.18,235.35 1059.79,235.25 1060.39,235.05 1061.00,234.83 1061.61,234.67 1062.21,234.64 1062.82,234.76 1063.42,234.97 1064.03,235.19 1064.63,235.34 1065.24,235.36 1065.84,235.23 1066.45,235.01 1067.06,234.78 1067.66,234.63 1068.27,234.63 1068.87,234.77 1069.48,235.01 1070.08,235.25 1070.69,235.39 1071.29,235.38 1071.90,235.21 1072.51,234.96 1073.11,234.72 1073.72,234.59 1074.32,234.61 1074.93,234.79 1075.53,235.06 1076.14,235.30 1076.74,235.43 1077.35,235.39 1077.96,235.20 1078.56,234.92 1079.17,234.67 1079.77,234.54 1080.38,234.59 1080.98,234.81 1081.59,235.10 1082.19,235.36 1082.80,235.48 1083.41,235.42 1084.01,235.18 1084.62,234.87 1085.22,234.60 1085.83,234.49 1086.43,234.57 1087.04,234.82 1087.64,235.15 1088.25,235.42 1088.86,235.54 1089.46,235.44 1090.07,235.17 1090.67,234.82 1091.28,234.54 1091.88,234.43 1092.49,234.54 1093.09,234.83 1093.70,235.20 1094.31,235.49 1094.91,235.60 1095.52,235.47 1096.12,235.16 1096.73,234.78 1097.33,234.47 1097.94,234.37 1098.54,234.51 1099.15,234.84 1099.76,235.24 1100.36,235.56 1100.97,235.66 1101.57,235.51 1102.18,235.15 1102.78,234.73 1103.39,234.40 1103.99,234.30 1104.60,234.47 1105.21,234.85 1105.81,235.29 1106.42,235.63 1107.02,235.73 1107.63,235.54 1108.23,235.14 1108.84,234.68 1109.44,234.33 1110.05,234.24 1110.66,234.43 1111.26,234.86 1111.87,235.34 1112.47,235.70 1113.08,235.80 1113.68,235.58 1114.29,235.14 1114.89,234.63 1115.50,234.26 1116.11,234.16 1116.71,234.39 1117.32,234.86 1117.92,235.39 1118.53,235.78 1119.13,235.87 1119.74,235.63 1120.34,235.14 1120.95,234.58 1121.56,234.18 1122.16,234.09 1122.77,234.34 1123.37,234.86 1123.98,235.44 1124.58,235.85 1125.19,235.95 1125.79,235.68 1126.40,235.14 1127.01,234.54 1127.61,234.10 1128.22,234.01 1128.82,234.29 1129.43,234.86 1130.03,235.48 1130.64,235.93 1131.24,236.03 1131.85,235.73 1132.46,235.14 1133.06,234.49 1133.67,234.02 1134.27,233.93 1134.88,234.24 1135.48,234.85 1136.09,235.53 1136.69,236.01 1137.30,236.11 1137.91,235.79 1138.51,235.15 1139.12,234.45 1139.72,233.94 1140.33,233.84 1140.93,234.18 1141.54,234.84 1142.14,235.57 1142.75,236.09 1143.36,236.20 1143.96,235.84 1144.57,235.16 1145.17,234.40 1145.78,233.86 1146.38,233.75 1146.99,234.12 1147.59,234.83 1148.20,235.62 1148.81,236.18 1149.41,236.29 1150.02,235.91 1150.62,235.17 1151.23,234.36 1151.83,233.78 1152.44,233.66 1153.04,234.06 1153.65,234.82 1154.26,235.66 1154.86,236.26 1155.47,236.38 1156.07,235.97 1156.68,235.19 1157.28,234.32 1157.89,233.70 1158.49,233.57 1159.10,233.99 1159.71,234.80 1160.31,235.70 1160.92,236.34 1161.52,236.47 1162.13,236.04 1162.73,235.20 1163.34,234.28 1163.94,233.62 1164.55,233.48 1165.16,233.92 1165.76,234.79 1166.37,235.74 1166.97,236.42 1167.58,236.57 1168.18,236.11 1168.79,235.22 1169.39,234.24"/>
<polyline fill="none" stroke="#2563eb" stroke-width="1.4" points="80.00,127.37 80.61,186.62 81.21,264.49 81.82,331.25 82.42,361.40 83.03,343.34 83.63,283.87 84.24,205.60 84.84,138.39 85.45,107.93 86.06,125.94 86.66,185.63 87.27,264.31 87.87,331.96 88.48,362.73 89.08,344.77 89.69,284.86 90.29,205.77 90.90,137.68 91.51,106.61 92.11,124.51 92.72,184.64 93.32,264.14 93.93,332.67 94.53,364.04 95.14,346.20 95.74,285.85 96.35,205.95 96.96,136.98 97.56,105.29 98.17,123.08 98.77,183.65 99.38,263.95 99.98,333.37 100.59,365.36 101.19,347.63 101.80,286.85 102.41,206.14 103.01,136.28 103.62,103.99 104.22,121.66 104.83,182.65 105.43,263.76 106.04,334.05 106.64,366.66 107.25,349.05 107.86,287.85 108.46,206.34 109.07,135.60 109.67,102.69 110.28,120.24 110.88,181.65 111.49,263.56 112.09,334.73 112.70,367.95 113.31,350.47 113.91,288.85 114.52,206.55 115.12,134.94 115.73,101.41 116.33,118.82 116.94,180.64 117.54,263.34 118.15,335.38 118.76,369.22 119.36,351.88 119.97,289.86 120.57,206.77 121.18,134.30 121.78,100.14 122.39,117.42 122.99,179.63 123.60,263.10 124.21,336.01 124.81,370.48 125.42,353.28 126.02,290.88 126.63,207.02 127.23,133.69 127.84,98.90 128.44,116.02 129.05,178.61 129.66,262.84 130.26,336.60 130.87,371.71 131.47,354.67 132.08,291.90 132.68,207.29 133.29,133.10 133.89,97.69 134.50,114.64 135.11,177.58 135.71,262.56 136.32,337.17 136.92,372.91 137.53,356.05 138.13,292.93 138.74,207.59 139.34,132.55 139.95,96.50 140.56,113.27 141.16,176.54 141.77,262.25 142.37,337.71 142.98,374.08 143.58,357.41 144.19,293.98 144.79,207.91 145.40,132.04 146.01,95.34 146.61,111.91 147.22,175.50 147.82,261.91 148.43,338.20 149.03,375.22 149.64,358.76 150.24,295.02 150.85,208.26 151.46,131.56 152.06,94.22 152.67,110.57 153.27,174.44 153.88,261.55 154.48,338.66 155.09,376.32 155.69,360.10 156.30,296.08 156.91,208.65 157.51,131.13 158.12,93.14 158.72,109.24 159.33,173.38 159.93,261.14 160.54,339.07 161.14,377.39 161.75,361.41 162.36,297.15 162.96,209.07 163.57,130.74 164.17,92.09 164.78,107.93 165.38,172.30 165.99,260.71 166.59,339.43 167.20,378.42 167.81,362.71 168.41,298.24 169.02,209.52 169.62,130.40 170.23,91.08 170.83,106.64 171.44,171.22 172.04,260.23 172.65,339.75 173.26,379.40 173.86,363.99 174.47,299.33 175.07,210.01 175.68,130.11 176.28,90.12 176.89,105.37 177.49,170.12 178.10,259.72 178.71,340.02 179.31,380.34 179.92,365.26 180.52,300.43 181.13,210.55 181.73,129.87 182.34,89.20 182.94,104.12 183.55,169.01 184.16,259.17 184.76,340.23 185.37,381.24 185.97,366.50 186.58,301.55 187.18,211.12 187.79,129.68 188.39,88.32 189.00,102.88 189.61,167.88 190.21,258.58 190.82,340.39 191.42,382.09 192.03,367.72 192.63,302.68 193.24,211.73 193.84,129.55 194.45,87.49 195.06,101.67 195.66,166.74 196.27,257.94 196.87,340.50 197.48,382.90 198.08,368.92 198.69,303.83 199.29,212.39 199.90,129.47 200.51,86.71 201.11,100.48 201.72,165.59 202.32,257.26 202.93,340.54 203.53,383.66 204.14,370.10 204.74,304.98 205.35,213.09 205.96,129.45 206.56,85.98 207.17,99.31 207.77,164.43 208.38,256.54 208.98,340.54 209.59,384.37 210.19,371.26 210.80,306.16 211.41,213.83 212.01,129.49 212.62,85.30 213.22,98.17 213.83,163.25 214.43,255.77 215.04,340.47 215.64,385.02 216.25,372.39 216.86,307.34 217.46,214.62 218.07,129.58 218.67,84.66 219.28,97.04 219.88,162.06 220.49,254.97 221.09,340.35 221.70,385.63 222.31,373.51 222.91,308.54 223.52,215.45 224.12,129.73 224.73,84.08 225.33,95.94 225.94,160.86 226.54,254.11 227.15,340.17 227.76,386.19 228.36,374.60 228.97,309.75 229.57,216.33 230.18,129.94 230.78,83.54 231.39,94.86 231.99,159.64 232.60,253.22 233.21,339.93 233.81,386.70 234.42,375.66 235.02,310.97 235.63,217.25 236.23,130.21 236.84,83.06 237.44,93.81 238.05,158.41 238.66,252.28 239.26,339.63 239.87,387.16 240.47,376.71 241.08,312.20 241.68,218.21 242.29,130.53 242.89,82.62 243.50,92.78 244.11,157.17 244.71,251.29 245.32,339.28 245.92,387.57 246.53,377.73 247.13,313.45 247.74,219.21 248.34,130.91 248.95,82.24 249.56,91.77 250.16,155.92 250.77,250.27 251.37,338.87 251.98,387.93 252.58,378.72 253.19,314.71 253.79,220.25 254.40,131.35 255.01,81.90 255.61,90.78 256.22,154.66 256.82,249.21 257.43,338.41 258.03,388.25 258.64,379.70 259.24,315.97 259.85,221.34 260.46,131.84 261.06,81.61 261.67,89.83 262.27,153.39 262.88,248.11 263.48,337.89 264.09,388.51 264.69,380.64 265.30,317.25 265.91,222.46 266.51,132.38 267.12,81.37 267.72,88.89 268.33,152.11 268.93,246.97 269.54,337.32 270.14,388.73 270.75,381.57 271.36,318.53 271.96,223.61 272.57,132.98 273.17,81.18 273.78,87.98 274.38,150.82 274.99,245.79 275.59,336.70 276.20,388.90 276.81,382.46 277.41,319.82 278.02,224.81 278.62,133.63 279.23,81.03 279.83,87.09 280.44,149.53 281.04,244.58 281.65,336.03 282.26,389.02 282.86,383.34 283.47,321.11 284.07,226.03 284.68,134.32 285.28,80.93 285.89,86.23 286.49,148.24 287.10,243.34 287.71,335.31 288.31,389.10 288.92,384.18 289.52,322.41 290.13,227.29 290.73,135.06 291.34,80.87 291.94,85.40 292.55,146.94 293.16,242.07 293.76,334.55 294.37,389.13 294.97,385.01 295.58,323.71 296.18,228.58 296.79,135.85 297.39,80.86 298.00,84.59 298.61,145.64 299.21,240.77 299.82,333.74 300.42,389.13 301.03,385.80 301.63,325.01 302.24,229.89 302.84,136.68 303.45,80.89 304.06,83.81 304.66,144.34 305.27,239.44 305.87,332.89 306.48,389.08 307.08,386.57 307.69,326.30 308.29,231.22 308.90,137.54 309.51,80.96 310.11,83.05 310.72,143.04 311.32,238.10 311.93,332.00 312.53,388.98 313.14,387.31 313.74,327.60 314.35,232.58 314.96,138.45 315.56,81.07 316.17,82.33 316.77,141.75 317.38,236.73 317.98,331.08 318.59,388.85 319.19,388.02 319.80,328.89 320.41,233.96 321.01,139.39 321.62,81.22 322.22,81.63 322.83,140.47 323.43,235.34 324.04,330.12 324.64,388.68 325.25,388.71 325.86,330.17 326.46,235.35 327.07,140.37 327.67,81.41 328.28,80.96 328.88,139.19 329.49,233.94 330.09,329.13 330.70,388.48 331.31,389.37 331.91,331.44 332.52,236.76 333.12,141.38 333.73,81.64 334.33,80.31 334.94,137.92 335.54,232.53 336.15,328.10 336.76,388.23 337.36,390.00 337.97,332.71 338.57,238.18 339.18,142.42 339.78,81.90 340.39,79.70 340.99,136.66 341.60,231.11 342.21,327.05 342.81,387.95 343.42,390.59 344.02,333.96 344.63,239.61 345.23,143.48 345.84,82.20 346.44,79.12 347.05,135.42 347.66,229.68 348.26,325.98 348.87,387.64 349.47,391.16 350.08,335.19 350.68,241.04 351.29,144.57 351.89,82.53 352.50,78.56 353.11,134.20 353.71,228.24 354.32,324.88 354.92,387.29 355.53,391.70 356.13,336.41 356.74,242.47 357.34,145.67 357.95,82.89 358.56,78.04 359.16,132.99 359.77,226.81 360.37,323.76 360.98,386.92 361.58,392.20 362.19,337.60 362.79,243.91 363.40,146.80 364.01,83.28 364.61,77.55 365.22,131.80 365.82,225.37 366.43,322.62 367.03,386.51 367.64,392.68 368.24,338.78 368.85,245.34 369.46,147.95 370.06,83.71 370.67,77.09 371.27,130.64 371.88,223.94 372.48,321.47 373.09,386.07 373.69,393.12 374.30,339.93 374.91,246.76 375.51,149.10 376.12,84.16 376.72,76.67 377.33,129.50 377.93,222.52 378.54,320.31 379.14,385.60 379.75,393.53 380.36,341.06 380.96,248.18 381.57,150.28 382.17,84.64 382.78,76.28 383.38,128.39 383.99,221.11 384.59,319.13 385.20,385.11 385.81,393.90 386.41,342.16 387.02,249.59 387.62,151.46 388.23,85.15 388.83,75.92 389.44,127.30 390.04,219.71 390.65,317.95 391.26,384.59 391.86,394.24 392.47,343.23 393.07,250.98 393.68,152.64 394.28,85.68 394.89,75.60 395.49,126.25 396.10,218.33 396.71,316.76 397.31,384.04 397.92,394.55 398.52,344.27 399.13,252.36 399.73,153.83 400.34,86.23 400.94,75.31 401.55,125.22 402.16,216.96 402.76,315.57 403.37,383.48 403.97,394.82 404.58,345.27 405.18,253.71 405.79,155.03 406.39,86.81 407.00,75.06 407.61,124.24 408.21,215.61 408.82,314.37 409.42,382.88 410.03,395.05 410.63,346.24 411.24,255.05 411.84,156.23 412.45,87.42 413.06,74.84 413.66,123.28 414.27,214.29 414.87,313.17 415.48,382.27 416.08,395.25 416.69,347.18 417.29,256.37 417.90,157.42 418.51,88.04 419.11,74.66 419.72,122.37 420.32,212.98 420.93,311.98 421.53,381.64 422.14,395.42 422.74,348.07 423.35,257.65 423.96,158.61 424.56,88.68 425.17,74.51 425.77,121.49 426.38,211.71 426.98,310.79 427.59,380.98 428.19,395.54 428.80,348.93 429.41,258.92 430.01,159.80 430.62,89.35 431.22,74.40 431.83,120.65 432.43,210.46 433.04,309.61 433.64,380.31 434.25,395.64 434.86,349.75 435.46,260.15 436.07,160.98 436.67,90.03 437.28,74.33 437.88,119.85 438.49,209.24 439.09,308.43 439.70,379.62 440.31,395.69 440.91,350.53 441.52,261.35 442.12,162.15 442.73,90.73 443.33,74.29 443.94,119.09 444.54,208.05 445.15,307.26 445.76,378.92 446.36,395.71 446.97,351.27 447.57,262.53 448.18,163.31 448.78,91.44 449.39,74.29 449.99,118.38 450.60,206.90 451.21,306.11 451.81,378.20 452.42,395.70 453.02,351.96 453.63,263.66 454.23,164.46 454.84,92.17 455.44,74.32 456.05,117.70 456.66,205.78 457.26,304.96 457.87,377.46 458.47,395.65 459.08,352.61 459.68,264.77 460.29,165.60 460.89,92.91 461.50,74.38 462.11,117.07 462.71,204.69 463.32,303.83 463.92,376.71 464.53,395.57 465.13,353.22 465.74,265.84 466.34,166.73 466.95,93.66 467.56,74.48 468.16,116.48 468.77,203.64 469.37,302.71 469.98,375.95 470.58,395.45 471.19,353.79 471.79,266.87 472.40,167.83 473.01,94.43 473.61,74.62 474.22,115.94 474.82,202.62 475.43,301.61 476.03,375.18 476.64,395.30 477.24,354.32 477.85,267.87 478.46,168.93 479.06,95.20 479.67,74.78 480.27,115.43 480.88,201.64 481.48,300.53 482.09,374.41 482.69,395.12 483.30,354.80 483.91,268.83 484.51,170.00 485.12,95.98 485.72,74.98 486.33,114.97 486.93,200.70 487.54,299.46 488.14,373.62 488.75,394.91 489.36,355.24 489.96,269.76 490.57,171.06 491.17,96.77 491.78,75.21 492.38,114.55 492.99,199.79 493.59,298.42 494.20,372.83 494.81,394.67 495.41,355.64 496.02,270.64 496.62,172.10 497.23,97.57 497.83,75.46 498.44,114.17 499.04,198.92 499.65,297.39 500.26,372.03 500.86,394.40 501.47,356.00 502.07,271.49 502.68,173.12 503.28,98.37 503.89,75.74 504.49,113.83 505.10,198.09 505.71,296.38 506.31,371.22 506.92,394.10 507.52,356.32 508.13,272.31 508.73,174.11 509.34,99.18 509.94,76.05 510.55,113.53 511.16,197.30 511.76,295.39 512.37,370.42 512.97,393.78 513.58,356.60 514.18,273.09 514.79,175.09 515.39,99.98 516.00,76.38 516.61,113.27 517.21,196.54 517.82,294.43 518.42,369.61 519.03,393.44 519.63,356.85 520.24,273.83 520.84,176.04 521.45,100.79 522.06,76.74 522.66,113.04 523.27,195.81 523.87,293.48 524.48,368.81 525.08,393.07 525.69,357.06 526.29,274.54 526.90,176.98 527.51,101.59 528.11,77.11 528.72,112.84 529.32,195.12 529.93,292.56 530.53,368.00 531.14,392.69 531.74,357.24 532.35,275.21 532.96,177.89 533.56,102.40 534.17,77.51 534.77,112.67 535.38,194.46 535.98,291.66 536.59,367.20 537.19,392.29 537.80,357.39 538.41,275.85 539.01,178.78 539.62,103.20 540.22,77.91 540.83,112.54 541.43,193.84 542.04,290.78 542.64,366.40 543.25,391.87 543.86,357.52 544.46,276.46 545.07,179.65 545.67,103.99 546.28,78.34 546.88,112.43 547.49,193.24 548.09,289.93 548.70,365.61 549.31,391.45 549.91,357.61 550.52,277.04 551.12,180.49 551.73,104.78 552.33,78.77 552.94,112.35 553.54,192.68 554.15,289.09 554.76,364.83 555.36,391.01 555.97,357.68 556.57,277.59 557.18,181.31 557.78,105.56 558.39,79.21 558.99,112.29 559.60,192.14 560.21,288.28 560.81,364.05 561.42,390.56 562.02,357.73 562.63,278.12 563.23,182.11 563.84,106.33 564.44,79.66 565.05,112.25 565.66,191.62 566.26,287.49 566.87,363.29 567.47,390.11 568.08,357.76 568.68,278.62 569.29,182.89 569.89,107.09 570.50,80.11 571.11,112.22 571.71,191.14 572.32,286.73 572.92,362.53 573.53,389.66 574.13,357.78 574.74,279.10 575.34,183.64 575.95,107.83 576.56,80.57 577.16,112.21 577.77,190.67 578.37,285.98 578.98,361.80 579.58,389.20 580.19,357.78 580.79,279.55 581.40,184.38 582.01,108.57 582.61,81.02 583.22,112.22 583.82,190.22 584.43,285.26 585.03,361.07 585.64,388.75 586.24,357.77 586.85,279.99 587.46,185.09 588.06,109.28 588.67,81.47 589.27,112.23 589.88,189.80 590.48,284.56 591.09,360.36 591.69,388.31 592.30,357.76 592.91,280.41 593.51,185.78 594.12,109.98 594.72,81.91 595.33,112.25 595.93,189.39 596.54,283.88 597.14,359.67 597.75,387.87 598.36,357.74 598.96,280.81 599.57,186.45 600.17,110.67 600.78,82.35 601.38,112.27 601.99,188.99 602.59,283.21 603.20,359.00 603.81,387.44 604.41,357.72 605.02,281.20 605.62,187.11 606.23,111.33 606.83,82.77 607.44,112.29 608.04,188.60 608.65,282.57 609.26,358.34 609.86,387.02 610.47,357.70 611.07,281.58 611.68,187.74 612.28,111.97 612.89,83.18 613.49,112.31 614.10,188.23 614.71,281.95 615.31,357.71 615.92,386.62 616.52,357.68 617.13,281.95 617.73,188.35 618.34,112.60 618.94,83.57 619.55,112.32 620.16,187.86 620.76,281.34 621.37,357.10 621.97,386.24 622.58,357.67 623.18,282.32 623.79,188.95 624.39,113.20 625.00,83.94 625.61,112.33 626.21,187.50 626.82,280.76 627.42,356.51 628.03,385.87 628.63,357.67 629.24,282.68 629.84,189.53 630.45,113.77 631.06,84.30 631.66,112.33 632.27,187.14 632.87,280.18 633.48,355.95 634.08,385.53 634.69,357.68 635.29,283.03 635.90,190.09 636.51,114.33 637.11,84.63 637.72,112.31 638.32,186.79 638.93,279.63 639.53,355.40 640.14,385.21 640.74,357.70 641.35,283.39 641.96,190.64 642.56,114.85 643.17,84.93 643.77,112.28 644.38,186.43 644.98,279.09 645.59,354.89 646.19,384.92 646.80,357.74 647.41,283.75 648.01,191.17 648.62,115.36 649.22,85.21 649.83,112.23 650.43,186.07 651.04,278.56 651.64,354.40 652.25,384.66 652.86,357.80 653.46,284.11 654.07,191.69 654.67,115.83 655.28,85.46 655.88,112.16 656.49,185.71 657.09,278.05 657.70,353.93 658.31,384.42 658.91,357.89 659.52,284.47 660.12,192.20 660.73,116.29 661.33,85.68 661.94,112.06 662.54,185.34 663.15,277.55 663.76,353.50 664.36,384.21 664.97,357.99 665.57,284.84 666.18,192.70 666.78,116.71 667.39,85.88 667.99,111.95 668.60,184.96 669.21,277.06 669.81,353.08 670.42,384.04 671.02,358.12 671.63,285.23 672.23,193.18 672.84,117.11 673.44,86.04 674.05,111.81 674.66,184.58 675.26,276.58 675.87,352.70 676.47,383.89 677.08,358.27 677.68,285.62 678.29,193.66 678.89,117.48 679.50,86.16 680.11,111.64 680.71,184.18 681.32,276.11 681.92,352.34 682.53,383.78 683.13,358.45 683.74,286.02 684.34,194.12 684.95,117.83 685.56,86.26 686.16,111.44 686.77,183.77 687.37,275.64 687.98,352.00 688.58,383.71 689.19,358.67 689.79,286.44 690.40,194.58 691.01,118.15 691.61,86.32 692.22,111.22 692.82,183.35 693.43,275.19 694.03,351.69 694.64,383.66 695.24,358.91 695.85,286.87 696.46,195.03 697.06,118.45 697.67,86.34 698.27,110.96 698.88,182.91 699.48,274.74 700.09,351.40 700.69,383.65 701.30,359.18 701.91,287.31 702.51,195.48 703.12,118.73 703.72,86.34 704.33,110.68 704.93,182.46 705.54,274.29 706.14,351.14 706.75,383.68 707.36,359.48 707.96,287.77 708.57,195.92 709.17,118.98 709.78,86.30 710.38,110.36 710.99,181.99 711.59,273.85 712.20,350.90 712.81,383.73 713.41,359.81 714.02,288.25 714.62,196.36 715.23,119.21 715.83,86.23 716.44,110.01 717.04,181.50 717.65,273.42 718.26,350.68 718.86,383.82 719.47,360.17 720.07,288.75 720.68,196.80 721.28,119.41 721.89,86.12 722.49,109.64 723.10,181.00 723.71,272.98 724.31,350.49 724.92,383.94 725.52,360.56 726.13,289.26 726.73,197.24 727.34,119.60 727.94,85.99 728.55,109.23 729.16,180.47 729.76,272.54 730.37,350.31 730.97,384.09 731.58,360.98 732.18,289.79 732.79,197.67 733.39,119.77 734.00,85.82 734.61,108.79 735.21,179.93 735.82,272.11 736.42,350.15 737.03,384.27 737.63,361.43 738.24,290.34 738.84,198.11 739.45,119.93 740.06,85.63 740.66,108.33 741.27,179.37 741.87,271.67 742.48,350.00 743.08,384.47 743.69,361.91 744.29,290.91 744.90,198.55 745.51,120.06 746.11,85.41 746.72,107.83 747.32,178.79 747.93,271.23 748.53,349.87 749.14,384.70 749.74,362.42 750.35,291.50 750.96,198.99 751.56,120.19 752.17,85.17 752.77,107.32 753.38,178.20 753.98,270.78 754.59,349.75 755.19,384.96 755.80,362.95 756.41,292.11 757.01,199.44 757.62,120.30 758.22,84.91 758.83,106.77 759.43,177.58 760.04,270.33 760.64,349.64 761.25,385.23 761.86,363.50 762.46,292.73 763.07,199.89 763.67,120.41 764.28,84.62 764.88,106.21 765.49,176.95 766.09,269.88 766.70,349.54 767.31,385.52 767.91,364.08 768.52,293.37 769.12,200.35 769.73,120.51 770.33,84.32 770.94,105.62 771.54,176.30 772.15,269.42 772.76,349.44 773.36,385.83 773.97,364.68 774.57,294.03 775.18,200.82 775.78,120.61 776.39,84.01 776.99,105.02 777.60,175.64 778.21,268.95 778.81,349.35 779.42,386.15 780.02,365.29 780.63,294.70 781.23,201.29 781.84,120.70 782.44,83.68 783.05,104.39 783.66,174.96 784.26,268.47 784.87,349.25 785.47,386.48 786.08,365.92 786.68,295.39 787.29,201.77 787.89,120.79 788.50,83.35 789.11,103.76 789.71,174.26 790.32,267.98 790.92,349.16 791.53,386.82 792.13,366.56 792.74,296.09 793.34,202.27 793.95,120.89 794.56,83.01 795.16,103.11 795.77,173.55 796.37,267.48 796.98,349.06 797.58,387.16 798.19,367.21 798.79,296.80 799.40,202.77 800.01,120.99 800.61,82.67 801.22,102.46 801.82,172.84 802.43,266.97 803.03,348.95 803.64,387.50 804.24,367.87 804.85,297.53 805.46,203.29 806.06,121.10 806.67,82.33 807.27,101.80 807.88,172.11 808.48,266.45 809.09,348.84 809.69,387.83 810.30,368.53 810.91,298.26 811.51,203.82 812.12,121.22 812.72,82.00 813.33,101.14 813.93,171.37 814.54,265.91 815.14,348.71 815.75,388.16 816.36,369.19 816.96,299.00 817.57,204.36 818.17,121.35 818.78,81.67 819.38,100.48 819.99,170.62 820.59,265.36 821.20,348.57 821.81,388.48 822.41,369.85 823.02,299.75 823.62,204.91 824.23,121.50 824.83,81.36 825.44,99.82 826.04,169.87 826.65,264.80 827.26,348.41 827.86,388.79 828.47,370.51 829.07,300.51 829.68,205.48 830.28,121.67 830.89,81.06 831.49,99.17 832.10,169.11 832.71,264.23 833.31,348.24 833.92,389.08 834.52,371.15 835.13,301.27 835.73,206.07 836.34,121.86 836.94,80.78 837.55,98.52 838.16,168.35 838.76,263.63 839.37,348.04 839.97,389.35 840.58,371.79 841.18,302.03 841.79,206.67 842.39,122.07 843.00,80.52 843.61,97.89 844.21,167.58 844.82,263.02 845.42,347.81 846.03,389.60 846.63,372.41 847.24,302.79 847.84,207.28 848.45,122.31 849.06,80.29 849.66,97.28 850.27,166.82 850.87,262.40 851.48,347.56 852.08,389.81 852.69,373.02 853.29,303.56 853.90,207.92 854.51,122.57 855.11,80.09 855.72,96.69 856.32,166.06 856.93,261.76 857.53,347.28 858.14,390.00 858.74,373.60 859.35,304.32 859.96,208.57 860.56,122.87 861.17,79.92 861.77,96.11 862.38,165.30 862.98,261.10 863.59,346.97 864.19,390.15 864.80,374.16 865.41,305.07 866.01,209.23 866.62,123.19 867.22,79.78 867.83,95.57 868.43,164.55 869.04,260.43 869.64,346.63 870.25,390.27 870.86,374.70 871.46,305.82 872.07,209.92 872.67,123.55 873.28,79.68 873.88,95.05 874.49,163.80 875.09,259.73 875.70,346.25 876.31,390.35 876.91,375.20 877.52,306.57 878.12,210.62 878.73,123.95 879.33,79.62 879.94,94.55 880.54,163.06 881.15,259.02 881.76,345.83 882.36,390.39 882.97,375.68 883.57,307.30 884.18,211.34 884.78,124.38 885.39,79.61 885.99,94.10 886.60,162.33 887.21,258.29 887.81,345.38 888.42,390.38 889.02,376.12 889.63,308.03 890.23,212.08 890.84,124.86 891.44,79.64 892.05,93.67 892.66,161.61 893.26,257.54 893.87,344.89 894.47,390.33 895.08,376.52 895.68,308.74 896.29,212.83 896.89,125.37 897.50,79.72 898.11,93.28 898.71,160.90 899.32,256.78 899.92,344.35 900.53,390.22 901.13,376.89 901.74,309.45 902.34,213.61 902.95,125.93 903.56,79.84 904.16,92.93 904.77,160.20 905.37,255.99 905.98,343.78 906.58,390.07 907.19,377.22 907.79,310.14 908.40,214.40 909.01,126.53 909.61,80.02 910.22,92.62 910.82,159.52 911.43,255.19 912.03,343.15 912.64,389.87 913.24,377.51 913.85,310.82 914.46,215.21 915.06,127.17 915.67,80.25 916.27,92.35 916.88,158.85 917.48,254.37 918.09,342.49 918.69,389.61 919.30,377.76 919.91,311.48 920.51,216.04 921.12,127.86 921.72,80.54 922.33,92.13 922.93,158.19 923.54,253.53 924.14,341.78 924.75,389.30 925.36,377.97 925.96,312.13 926.57,216.89 927.17,128.59 927.78,80.88 928.38,91.94 928.99,157.55 929.59,252.67 930.20,341.03 930.81,388.93 931.41,378.13 932.02,312.76 932.62,217.76 933.23,129.36 933.83,81.27 934.44,91.80 935.04,156.93 935.65,251.80 936.26,340.23 936.86,388.51 937.47,378.25 938.07,313.37 938.68,218.65 939.28,130.19 939.89,81.72 940.49,91.71 941.10,156.32 941.71,250.90 942.31,339.38 942.92,388.03 943.52,378.32 944.13,313.97 944.73,219.55 945.34,131.05 945.94,82.22 946.55,91.66 947.16,155.73 947.76,249.99 948.37,338.49 948.97,387.50 949.58,378.35 950.18,314.56 950.79,220.47 951.39,131.97 952.00,82.78 952.61,91.65 953.21,155.15 953.82,249.06 954.42,337.56 955.03,386.91 955.63,378.34 956.24,315.13 956.84,221.41 957.45,132.92 958.06,83.40 958.66,91.68 959.27,154.59 959.87,248.11 960.48,336.58 961.08,386.27 961.69,378.28 962.29,315.68 962.90,222.36 963.51,133.92 964.11,84.06 964.72,91.76 965.32,154.05 965.93,247.15 966.53,335.56 967.14,385.58 967.74,378.18 968.35,316.21 968.96,223.34 969.56,134.97 970.17,84.78 970.77,91.88 971.38,153.52 971.98,246.17 972.59,334.49 973.19,384.84 973.80,378.04 974.41,316.74 975.01,224.33 975.62,136.05 976.22,85.55 976.83,92.04 977.43,153.00 978.04,245.17 978.64,333.39 979.25,384.04 979.86,377.86 980.46,317.25 981.07,225.33 981.67,137.18 982.28,86.37 982.88,92.24 983.49,152.50 984.09,244.15 984.70,332.24 985.31,383.20 985.91,377.65 986.52,317.74 987.12,226.36 987.73,138.35 988.33,87.24 988.94,92.47 989.54,152.01 990.15,243.12 990.76,331.05 991.36,382.31 991.97,377.39 992.57,318.22 993.18,227.40 993.78,139.55 994.39,88.15 994.99,92.74 995.60,151.53 996.21,242.07 996.81,329.83 997.42,381.38 998.02,377.11 998.63,318.70 999.23,228.45 999.84,140.79 1000.44,89.10 1001.05,93.04 1001.66,151.07 1002.26,241.01 1002.87,328.57 1003.47,380.41 1004.08,376.79 1004.68,319.16 1005.29,229.53 1005.89,142.06 1006.50,90.09 1007.11,93.38 1007.71,150.61 1008.32,239.93 1008.92,327.28 1009.53,379.39 1010.13,376.44 1010.74,319.62 1011.34,230.61 1011.95,143.37 1012.56,91.12 1013.16,93.74 1013.77,150.15 1014.37,238.83 1014.98,325.96 1015.58,378.35 1016.19,376.07 1016.79,320.07 1017.40,231.72 1018.01,144.71 1018.61,92.19 1019.22,94.12 1019.82,149.71 1020.43,237.72 1021.03,324.61 1021.64,377.27 1022.24,375.68 1022.85,320.51 1023.46,232.83 1024.06,146.08 1024.67,93.28 1025.27,94.52 1025.88,149.26 1026.48,236.60 1027.09,323.23 1027.69,376.16 1028.30,375.26 1028.91,320.95 1029.51,233.97 1030.12,147.47 1030.72,94.41 1031.33,94.95 1031.93,148.82 1032.54,235.46 1033.14,321.82 1033.75,375.02 1034.36,374.83 1034.96,321.39 1035.57,235.11 1036.17,148.89 1036.78,95.55 1037.38,95.38 1037.99,148.38 1038.59,234.31 1039.20,320.39 1039.81,373.86 1040.41,374.39 1041.02,321.84 1041.62,236.27 1042.23,150.33 1042.83,96.72 1043.44,95.83 1044.04,147.94 1044.65,233.14 1045.26,318.94 1045.86,372.69 1046.47,373.94 1047.07,322.28 1047.68,237.45 1048.28,151.78 1048.89,97.90 1049.49,96.29 1050.10,147.49 1050.71,231.96 1051.31,317.48 1051.92,371.49 1052.52,373.48 1053.13,322.73 1053.73,238.64 1054.34,153.26 1054.94,99.10 1055.55,96.75 1056.16,147.04 1056.76,230.76 1057.37,315.99 1057.97,370.29 1058.58,373.01 1059.18,323.19 1059.79,239.84 1060.39,154.75 1061.00,100.31 1061.61,97.21 1062.21,146.58 1062.82,229.55 1063.42,314.50 1064.03,369.08 1064.63,372.55 1065.24,323.65 1065.84,241.06 1066.45,156.25 1067.06,101.52 1067.66,97.67 1068.27,146.11 1068.87,228.33 1069.48,312.99 1070.08,367.87 1070.69,372.09 1071.29,324.13 1071.90,242.28 1072.51,157.76 1073.11,102.74 1073.72,98.13 1074.32,145.63 1074.93,227.09 1075.53,311.48 1076.14,366.65 1076.74,371.64 1077.35,324.62 1077.96,243.53 1078.56,159.28 1079.17,103.95 1079.77,98.57 1080.38,145.13 1080.98,225.85 1081.59,309.96 1082.19,365.44 1082.80,371.21 1083.41,325.12 1084.01,244.78 1084.62,160.80 1085.22,105.16 1085.83,99.01 1086.43,144.62 1087.04,224.59 1087.64,308.43 1088.25,364.23 1088.86,370.78 1089.46,325.64 1090.07,246.04 1090.67,162.33 1091.28,106.36 1091.88,99.42 1092.49,144.09 1093.09,223.32 1093.70,306.91 1094.31,363.04 1094.91,370.38 1095.52,326.18 1096.12,247.32 1096.73,163.85 1097.33,107.55 1097.94,99.82 1098.54,143.54 1099.15,222.03 1099.76,305.38 1100.36,361.86 1100.97,369.99 1101.57,326.74 1102.18,248.61 1102.78,165.38 1103.39,108.73 1103.99,100.19 1104.60,142.97 1105.21,220.74 1105.81,303.86 1106.42,360.69 1107.02,369.63 1107.63,327.32 1108.23,249.91 1108.84,166.90 1109.44,109.88 1110.05,100.54 1110.66,142.38 1111.26,219.43 1111.87,302.34 1112.47,359.55 1113.08,369.30 1113.68,327.92 1114.29,251.22 1114.89,168.41 1115.50,111.01 1116.11,100.86 1116.71,141.76 1117.32,218.12 1117.92,300.84 1118.53,358.42 1119.13,368.99 1119.74,328.55 1120.34,252.54 1120.95,169.91 1121.56,112.12 1122.16,101.15 1122.77,141.12 1123.37,216.79 1123.98,299.34 1124.58,357.33 1125.19,368.72 1125.79,329.21 1126.40,253.87 1127.01,171.41 1127.61,113.21 1128.22,101.40 1128.82,140.45 1129.43,215.46 1130.03,297.85 1130.64,356.26 1131.24,368.48 1131.85,329.89 1132.46,255.21 1133.06,172.89 1133.67,114.26 1134.27,101.63 1134.88,139.76 1135.48,214.12 1136.09,296.37 1136.69,355.22 1137.30,368.27 1137.91,330.60 1138.51,256.56 1139.12,174.36 1139.72,115.28 1140.33,101.81 1140.93,139.04 1141.54,212.76 1142.14,294.91 1142.75,354.21 1143.36,368.11 1143.96,331.33 1144.57,257.91 1145.17,175.81 1145.78,116.27 1146.38,101.96 1146.99,138.29 1147.59,211.41 1148.20,293.47 1148.81,353.24 1149.41,367.98 1150.02,332.10 1150.62,259.27 1151.23,177.24 1151.83,117.23 1152.44,102.07 1153.04,137.51 1153.65,210.04 1154.26,292.04 1154.86,352.30 1155.47,367.89 1156.07,332.89 1156.68,260.64 1157.28,178.66 1157.89,118.15 1158.49,102.13 1159.10,136.70 1159.71,208.67 1160.31,290.64 1160.92,351.40 1161.52,367.85 1162.13,333.72 1162.73,262.02 1163.34,180.06 1163.94,119.03 1164.55,102.16 1165.16,135.86 1165.76,207.29 1166.37,289.25 1166.97,350.54 1167.58,367.84 1168.18,334.57 1168.79,263.40 1169.39,181.44"/>
<polyline fill="none" stroke="#dc2626" stroke-width="1.4" points="80.00,186.21 80.61,200.63 81.21,228.06 81.82,258.00 82.42,279.07 83.03,283.29 83.63,269.14 84.24,242.07 84.84,212.44 85.45,191.51 86.06,187.20 86.66,201.08 87.27,227.78 87.87,257.11 88.48,277.90 89.08,282.30 89.69,268.70 90.29,242.36 90.90,213.34 91.51,192.67 92.11,188.19 92.72,201.50 93.32,227.49 93.93,256.21 94.53,276.74 95.14,281.32 95.74,268.29 96.35,242.66 96.96,214.24 97.56,193.83 98.17,189.15 98.77,201.91 99.38,227.17 99.98,255.30 100.59,275.59 101.19,280.37 101.80,267.90 102.41,242.99 103.01,215.16 103.62,194.99 104.22,190.10 104.83,202.28 105.43,226.83 106.04,254.38 106.64,274.44 107.25,279.43 107.86,267.54 108.46,243.34 109.07,216.08 109.67,196.13 110.28,191.02 110.88,202.63 111.49,226.48 112.09,253.45 112.70,273.30 113.31,278.53 113.91,267.20 114.52,243.71 115.12,217.01 115.73,197.26 116.33,191.91 116.94,202.95 117.54,226.09 118.15,252.52 118.76,272.18 119.36,277.65 119.97,266.91 120.57,244.10 121.18,217.94 121.78,198.37 122.39,192.78 122.99,203.23 123.60,225.69 124.21,251.59 124.81,271.08 125.42,276.80 126.02,266.64 126.63,244.52 127.23,218.87 127.84,199.45 128.44,193.60 129.05,203.48 129.66,225.27 130.26,250.66 130.87,270.01 131.47,276.00 132.08,266.41 132.68,244.95 133.29,219.80 133.89,200.52 134.50,194.39 135.11,203.69 135.71,224.82 136.32,249.73 136.92,268.96 137.53,275.23 138.13,266.22 138.74,245.41 139.34,220.72 139.95,201.55 140.56,195.13 141.16,203.86 141.77,224.36 142.37,248.82 142.98,267.94 143.58,274.51 144.19,266.07 144.79,245.88 145.40,221.64 146.01,202.55 146.61,195.83 147.22,203.99 147.82,223.87 148.43,247.91 149.03,266.96 149.64,273.83 150.24,265.96 150.85,246.37 151.46,222.54 152.06,203.51 152.67,196.49 153.27,204.08 153.88,223.37 154.48,247.01 155.09,266.01 155.69,273.20 156.30,265.89 156.91,246.88 157.51,223.43 158.12,204.44 158.72,197.09 159.33,204.13 159.93,222.85 160.54,246.12 161.14,265.11 161.75,272.63 162.36,265.86 162.96,247.41 163.57,224.31 164.17,205.32 164.78,197.64 165.38,204.14 165.99,222.32 166.59,245.26 167.20,264.25 167.81,272.10 168.41,265.87 169.02,247.95 169.62,225.16 170.23,206.16 170.83,198.14 171.44,204.11 172.04,221.78 172.65,244.41 173.26,263.43 173.86,271.63 174.47,265.92 175.07,248.50 175.68,226.00 176.28,206.96 176.89,198.59 177.49,204.04 178.10,221.22 178.71,243.59 179.31,262.66 179.92,271.21 180.52,266.01 181.13,249.06 181.73,226.81 182.34,207.70 182.94,198.97 183.55,203.93 184.16,220.65 184.76,242.80 185.37,261.95 185.97,270.85 186.58,266.14 187.18,249.63 187.79,227.59 188.39,208.39 189.00,199.31 189.61,203.78 190.21,220.08 190.82,242.03 191.42,261.28 192.03,270.54 192.63,266.31 193.24,250.20 193.84,228.34 194.45,209.03 195.06,199.59 195.66,203.59 196.27,219.51 196.87,241.29 197.48,260.67 198.08,270.29 198.69,266.51 199.29,250.78 199.90,229.06 200.51,209.61 201.11,199.81 201.72,203.37 202.32,218.93 202.93,240.59 203.53,260.12 204.14,270.10 204.74,266.75 205.35,251.35 205.96,229.74 206.56,210.14 207.17,199.97 207.77,203.11 208.38,218.36 208.98,239.93 209.59,259.62 210.19,269.96 210.80,267.03 211.41,251.92 212.01,230.39 212.62,210.60 213.22,200.08 213.83,202.82 214.43,217.79 215.04,239.30 215.64,259.18 216.25,269.88 216.86,267.33 217.46,252.49 218.07,230.99 218.67,211.01 219.28,200.14 219.88,202.51 220.49,217.23 221.09,238.72 221.70,258.80 222.31,269.85 222.91,267.66 223.52,253.05 224.12,231.56 224.73,211.36 225.33,200.14 225.94,202.16 226.54,216.68 227.15,238.18 227.76,258.49 228.36,269.88 228.97,268.02 229.57,253.59 230.18,232.08 230.78,211.65 231.39,200.08 231.99,201.79 232.60,216.14 233.21,237.68 233.81,258.23 234.42,269.96 235.02,268.40 235.63,254.12 236.23,232.55 236.84,211.88 237.44,199.98 238.05,201.40 238.66,215.62 239.26,237.23 239.87,258.03 240.47,270.08 241.08,268.80 241.68,254.63 242.29,232.97 242.89,212.04 243.50,199.83 244.11,201.00 244.71,215.12 245.32,236.84 245.92,257.89 246.53,270.26 247.13,269.21 247.74,255.12 248.34,233.34 248.95,212.15 249.56,199.63 250.16,200.57 250.77,214.64 251.37,236.49 251.98,257.82 252.58,270.48 253.19,269.64 253.79,255.58 254.40,233.65 255.01,212.19 255.61,199.39 256.22,200.14 256.82,214.19 257.43,236.20 258.03,257.80 258.64,270.74 259.24,270.07 259.85,256.02 260.46,233.92 261.06,212.18 261.67,199.11 262.27,199.70 262.88,213.77 263.48,235.97 264.09,257.85 264.69,271.05 265.30,270.52 265.91,256.43 266.51,234.13 267.12,212.11 267.72,198.78 268.33,199.26 268.93,213.38 269.54,235.79 270.14,257.95 270.75,271.39 271.36,270.96 271.96,256.80 272.57,234.28 273.17,211.98 273.78,198.42 274.38,198.81 274.99,213.02 275.59,235.67 276.20,258.11 276.81,271.77 277.41,271.41 278.02,257.14 278.62,234.37 279.23,211.79 279.83,198.03 280.44,198.37 281.04,212.71 281.65,235.60 282.26,258.32 282.86,272.18 283.47,271.85 284.07,257.43 284.68,234.40 285.28,211.55 285.89,197.60 286.49,197.93 287.10,212.43 287.71,235.60 288.31,258.59 288.92,272.62 289.52,272.28 290.13,257.69 290.73,234.38 291.34,211.25 291.94,197.15 292.55,197.50 293.16,212.20 293.76,235.65 294.37,258.91 294.97,273.08 295.58,272.71 296.18,257.90 296.79,234.30 297.39,210.90 298.00,196.68 298.61,197.09 299.21,212.01 299.82,235.76 300.42,259.29 301.03,273.56 301.63,273.11 302.24,258.07 302.84,234.15 303.45,210.51 304.06,196.18 304.66,196.69 305.27,211.87 305.87,235.94 306.48,259.71 307.08,274.07 307.69,273.50 308.29,258.18 308.90,233.95 309.51,210.06 310.11,195.67 310.72,196.31 311.32,211.77 311.93,236.17 312.53,260.17 313.14,274.59 313.74,273.87 314.35,258.25 314.96,233.69 315.56,209.57 316.17,195.14 316.77,195.95 317.38,211.73 317.98,236.46 318.59,260.69 319.19,275.12 319.80,274.21 320.41,258.27 321.01,233.37 321.62,209.04 322.22,194.61 322.83,195.62 323.43,211.74 324.04,236.81 324.64,261.24 325.25,275.66 325.86,274.53 326.46,258.23 327.07,232.99 327.67,208.47 328.28,194.06 328.88,195.32 329.49,211.80 330.09,237.21 330.70,261.83 331.31,276.21 331.91,274.81 332.52,258.14 333.12,232.56 333.73,207.86 334.33,193.51 334.94,195.05 335.54,211.92 336.15,237.68 336.76,262.46 337.36,276.76 337.97,275.07 338.57,258.00 339.18,232.07 339.78,207.21 340.39,192.96 340.99,194.81 341.60,212.09 342.21,238.19 342.81,263.12 343.42,277.31 344.02,275.29 344.63,257.80 345.23,231.53 345.84,206.54 346.44,192.42 347.05,194.61 347.66,212.32 348.26,238.76 348.87,263.81 349.47,277.85 350.08,275.47 350.68,257.55 351.29,230.94 351.89,205.83 352.50,191.88 353.11,194.45 353.71,212.60 354.32,239.38 354.92,264.53 355.53,278.39 356.13,275.61 356.74,257.24 357.34,230.29 357.95,205.10 358.56,191.34 359.16,194.33 359.77,212.93 360.37,240.04 360.98,265.27 361.58,278.91 362.19,275.72 362.79,256.88 363.40,229.60 364.01,204.35 364.61,190.82 365.22,194.24 365.82,213.32 366.43,240.76 367.03,266.03 367.64,279.43 368.24,275.78 368.85,256.46 369.46,228.87 370.06,203.58 370.67,190.32 371.27,194.20 371.88,213.76 372.48,241.51 373.09,266.81 373.69,279.93 374.30,275.80 374.91,256.00 375.51,228.09 376.12,202.79 376.72,189.83 377.33,194.20 377.93,214.25 378.54,242.31 379.14,267.60 379.75,280.41 380.36,275.78 380.96,255.48 381.57,227.28 382.17,202.00 382.78,189.36 383.38,194.24 383.99,214.79 384.59,243.14 385.20,268.40 385.81,280.87 386.41,275.72 387.02,254.91 387.62,226.42 388.23,201.19 388.83,188.91 389.44,194.33 390.04,215.39 390.65,244.01 391.26,269.21 391.86,281.30 392.47,275.61 393.07,254.30 393.68,225.54 394.28,200.38 394.89,188.49 395.49,194.46 396.10,216.02 396.71,244.91 397.31,270.03 397.92,281.71 398.52,275.46 399.13,253.64 399.73,224.63 400.34,199.56 400.94,188.09 401.55,194.63 402.16,216.70 402.76,245.84 403.37,270.84 403.97,282.10 404.58,275.26 405.18,252.94 405.79,223.69 406.39,198.75 407.00,187.72 407.61,194.85 408.21,217.42 408.82,246.78 409.42,271.65 410.03,282.46 410.63,275.03 411.24,252.20 411.84,222.73 412.45,197.94 413.06,187.37 413.66,195.10 414.27,218.18 414.87,247.75 415.48,272.45 416.08,282.78 416.69,274.75 417.29,251.42 417.90,221.75 418.51,197.14 419.11,187.06 419.72,195.40 420.32,218.97 420.93,248.74 421.53,273.25 422.14,283.08 422.74,274.43 423.35,250.61 423.96,220.76 424.56,196.36 425.17,186.78 425.77,195.74 426.38,219.80 426.98,249.73 427.59,274.03 428.19,283.34 428.80,274.08 429.41,249.78 430.01,219.77 430.62,195.58 431.22,186.53 431.83,196.11 432.43,220.65 433.04,250.73 433.64,274.79 434.25,283.58 434.86,273.69 435.46,248.91 436.07,218.76 436.67,194.83 437.28,186.32 437.88,196.52 438.49,221.53 439.09,251.74 439.70,275.54 440.31,283.77 440.91,273.26 441.52,248.02 442.12,217.76 442.73,194.09 443.33,186.14 443.94,196.96 444.54,222.42 445.15,252.74 445.76,276.26 446.36,283.94 446.97,272.80 447.57,247.12 448.18,216.76 448.78,193.38 449.39,185.99 449.99,197.44 450.60,223.33 451.21,253.74 451.81,276.96 452.42,284.07 453.02,272.31 453.63,246.20 454.23,215.77 454.84,192.70 455.44,185.88 456.05,197.94 456.66,224.25 457.26,254.72 457.87,277.63 458.47,284.16 459.08,271.80 459.68,245.28 460.29,214.79 460.89,192.05 461.50,185.80 462.11,198.47 462.71,225.18 463.32,255.69 463.92,278.26 464.53,284.22 465.13,271.26 465.74,244.35 466.34,213.83 466.95,191.43 467.56,185.76 468.16,199.02 468.77,226.11 469.37,256.64 469.98,278.87 470.58,284.25 471.19,270.70 471.79,243.42 472.40,212.89 473.01,190.84 473.61,185.75 474.22,199.59 474.82,227.04 475.43,257.57 476.03,279.44 476.64,284.24 477.24,270.12 477.85,242.50 478.46,211.98 479.06,190.29 479.67,185.77 480.27,200.17 480.88,227.96 481.48,258.46 482.09,279.97 482.69,284.20 483.30,269.53 483.91,241.58 484.51,211.10 485.12,189.78 485.72,185.83 486.33,200.77 486.93,228.87 487.54,259.33 488.14,280.45 488.75,284.12 489.36,268.92 489.96,240.68 490.57,210.25 491.17,189.31 491.78,185.92 492.38,201.38 492.99,229.76 493.59,260.16 494.20,280.90 494.81,284.02 495.41,268.31 496.02,239.80 496.62,209.44 497.23,188.89 497.83,186.05 498.44,202.00 499.04,230.63 499.65,260.94 500.26,281.30 500.86,283.88 501.47,267.69 502.07,238.94 502.68,208.68 503.28,188.51 503.89,186.20 504.49,202.62 505.10,231.48 505.71,261.69 506.31,281.65 506.92,283.71 507.52,267.07 508.13,238.11 508.73,207.96 509.34,188.18 509.94,186.38 510.55,203.24 511.16,232.29 511.76,262.38 512.37,281.96 512.97,283.51 513.58,266.45 514.18,237.31 514.79,207.29 515.39,187.90 516.00,186.59 516.61,203.86 517.21,233.07 517.82,263.02 518.42,282.22 519.03,283.29 519.63,265.83 520.24,236.55 520.84,206.68 521.45,187.67 522.06,186.83 522.66,204.47 523.27,233.81 523.87,263.61 524.48,282.42 525.08,283.04 525.69,265.23 526.29,235.83 526.90,206.12 527.51,187.49 528.11,187.09 528.72,205.07 529.32,234.51 529.93,264.14 530.53,282.57 531.14,282.76 531.74,264.64 532.35,235.15 532.96,205.62 533.56,187.37 534.17,187.38 534.77,205.65 535.38,235.17 535.98,264.60 536.59,282.68 537.19,282.46 537.80,264.06 538.41,234.52 539.01,205.19 539.62,187.29 540.22,187.69 540.83,206.22 541.43,235.77 542.04,265.00 542.64,282.72 543.25,282.14 543.86,263.50 544.46,233.95 545.07,204.82 545.67,187.27 546.28,188.02 546.88,206.77 547.49,236.32 548.09,265.34 548.70,282.72 549.31,281.80 549.91,262.96 550.52,233.42 551.12,204.51 551.73,187.30 552.33,188.37 552.94,207.30 553.54,236.81 554.15,265.61 554.76,282.66 555.36,281.44 555.97,262.44 556.57,232.96 557.18,204.28 557.78,187.39 558.39,188.74 558.99,207.80 559.60,237.25 560.21,265.81 560.81,282.54 561.42,281.06 562.02,261.96 562.63,232.55 563.23,204.12 563.84,187.53 564.44,189.13 565.05,208.27 565.66,237.62 566.26,265.93 566.87,282.37 567.47,280.67 568.08,261.50 568.68,232.21 569.29,204.03 569.89,187.73 570.50,189.53 571.11,208.72 571.71,237.93 572.32,265.98 572.92,282.15 573.53,280.26 574.13,261.07 574.74,231.94 575.34,204.01 575.95,187.98 576.56,189.94 577.16,209.13 577.77,238.18 578.37,265.96 578.98,281.87 579.58,279.84 580.19,260.67 580.79,231.72 581.40,204.07 582.01,188.28 582.61,190.37 583.22,209.51 583.82,238.35 584.43,265.87 585.03,281.54 585.64,279.41 586.24,260.31 586.85,231.58 587.46,204.20 588.06,188.64 588.67,190.81 589.27,209.85 589.88,238.46 590.48,265.70 591.09,281.16 591.69,278.97 592.30,259.99 592.91,231.51 593.51,204.41 594.12,189.04 594.72,191.25 595.33,210.15 595.93,238.50 596.54,265.46 597.14,280.73 597.75,278.52 598.36,259.71 598.96,231.50 599.57,204.69 600.17,189.50 600.78,191.70 601.38,210.42 601.99,238.47 602.59,265.14 603.20,280.25 603.81,278.07 604.41,259.46 605.02,231.57 605.62,205.04 606.23,190.00 606.83,192.16 607.44,210.64 608.04,238.37 608.65,264.75 609.26,279.73 609.86,277.61 610.47,259.26 611.07,231.70 611.68,205.47 612.28,190.55 612.89,192.61 613.49,210.83 614.10,238.20 614.71,264.29 615.31,279.15 615.92,277.15 616.52,259.10 617.13,231.90 617.73,205.96 618.34,191.15 618.94,193.08 619.55,210.97 620.16,237.96 620.76,263.76 621.37,278.53 621.97,276.69 622.58,258.97 623.18,232.18 623.79,206.53 624.39,191.79 625.00,193.54 625.61,211.07 626.21,237.66 626.82,263.16 627.42,277.87 628.03,276.23 628.63,258.89 629.24,232.52 629.84,207.16 630.45,192.47 631.06,194.00 631.66,211.13 632.27,237.29 632.87,262.50 633.48,277.17 634.08,275.77 634.69,258.86 635.29,232.92 635.90,207.86 636.51,193.19 637.11,194.46 637.72,211.15 638.32,236.85 638.93,261.77 639.53,276.44 640.14,275.31 640.74,258.86 641.35,233.39 641.96,208.62 642.56,193.94 643.17,194.92 643.77,211.12 644.38,236.35 644.98,260.98 645.59,275.66 646.19,274.85 646.80,258.90 647.41,233.92 648.01,209.43 648.62,194.73 649.22,195.37 649.83,211.06 650.43,235.78 651.04,260.13 651.64,274.86 652.25,274.40 652.86,258.99 653.46,234.52 654.07,210.31 654.67,195.55 655.28,195.82 655.88,210.95 656.49,235.16 657.09,259.23 657.70,274.02 658.31,273.96 658.91,259.11 659.52,235.16 660.12,211.24 660.73,196.40 661.33,196.26 661.94,210.81 662.54,234.49 663.15,258.28 663.76,273.16 664.36,273.52 664.97,259.27 665.57,235.87 666.18,212.21 666.78,197.28 667.39,196.69 667.99,210.63 668.60,233.76 669.21,257.28 669.81,272.27 670.42,273.09 671.02,259.47 671.63,236.62 672.23,213.23 672.84,198.17 673.44,197.12 674.05,210.42 674.66,232.98 675.26,256.24 675.87,271.37 676.47,272.67 677.08,259.70 677.68,237.42 678.29,214.30 678.89,199.09 679.50,197.53 680.11,210.17 680.71,232.16 681.32,255.15 681.92,270.44 682.53,272.26 683.13,259.97 683.74,238.27 684.34,215.40 684.95,200.02 685.56,197.94 686.16,209.88 686.77,231.29 687.37,254.04 687.98,269.50 688.58,271.86 689.19,260.27 689.79,239.15 690.40,216.53 691.01,200.97 691.61,198.33 692.22,209.57 692.82,230.39 693.43,252.89 694.03,268.55 694.64,271.47 695.24,260.59 695.85,240.07 696.46,217.69 697.06,201.93 697.67,198.71 698.27,209.23 698.88,229.45 699.48,251.72 700.09,267.59 700.69,271.10 701.30,260.95 701.91,241.02 702.51,218.88 703.12,202.89 703.72,199.08 704.33,208.86 704.93,228.49 705.54,250.52 706.14,266.63 706.75,270.73 707.36,261.33 707.96,242.00 708.57,220.08 709.17,203.85 709.78,199.44 710.38,208.47 710.99,227.50 711.59,249.31 712.20,265.66 712.81,270.39 713.41,261.73 714.02,243.00 714.62,221.30 715.23,204.82 715.83,199.78 716.44,208.06 717.04,226.49 717.65,248.09 718.26,264.69 718.86,270.05 719.47,262.16 720.07,244.02 720.68,222.52 721.28,205.78 721.89,200.11 722.49,207.62 723.10,225.46 723.71,246.86 724.31,263.73 724.92,269.73 725.52,262.60 726.13,245.06 726.73,223.76 727.34,206.74 727.94,200.42 728.55,207.17 729.16,224.42 729.76,245.62 730.37,262.78 730.97,269.42 731.58,263.05 732.18,246.10 732.79,224.99 733.39,207.69 734.00,200.72 734.61,206.71 735.21,223.37 735.82,244.39 736.42,261.84 737.03,269.13 737.63,263.52 738.24,247.15 738.84,226.22 739.45,208.62 740.06,201.01 740.66,206.24 741.27,222.32 741.87,243.17 742.48,260.92 743.08,268.85 743.69,264.00 744.29,248.20 744.90,227.43 745.51,209.54 746.11,201.27 746.72,205.75 747.32,221.27 747.93,241.96 748.53,260.01 749.14,268.59 749.74,264.49 750.35,249.25 750.96,228.64 751.56,210.44 752.17,201.53 752.77,205.26 753.38,220.23 753.98,240.77 754.59,259.12 755.19,268.35 755.80,264.98 756.41,250.29 757.01,229.82 757.62,211.32 758.22,201.76 758.83,204.77 759.43,219.19 760.04,239.59 760.64,258.25 761.25,268.12 761.86,265.48 762.46,251.31 763.07,230.98 763.67,212.17 764.28,201.98 764.88,204.27 765.49,218.18 766.09,238.44 766.70,257.41 767.31,267.91 767.91,265.97 768.52,252.33 769.12,232.12 769.73,213.00 770.33,202.19 770.94,203.78 771.54,217.17 772.15,237.32 772.76,256.60 773.36,267.72 773.97,266.47 774.57,253.32 775.18,233.23 775.78,213.79 776.39,202.37 776.99,203.28 777.60,216.19 778.21,236.23 778.81,255.82 779.42,267.54 780.02,266.96 780.63,254.28 781.23,234.30 781.84,214.56 782.44,202.54 783.05,202.80 783.66,215.24 784.26,235.18 784.87,255.07 785.47,267.38 786.08,267.44 786.68,255.22 787.29,235.33 787.89,215.29 788.50,202.69 789.11,202.32 789.71,214.31 790.32,234.16 790.92,254.35 791.53,267.23 792.13,267.92 792.74,256.13 793.34,236.33 793.95,215.99 794.56,202.83 795.16,201.84 795.77,213.42 796.37,233.19 796.98,253.67 797.58,267.10 798.19,268.39 798.79,257.01 799.40,237.28 800.01,216.65 800.61,202.95 801.22,201.38 801.82,212.56 802.43,232.26 803.03,253.03 803.64,266.99 804.24,268.84 804.85,257.85 805.46,238.18 806.06,217.27 806.67,203.05 807.27,200.93 807.88,211.74 808.48,231.38 809.09,252.43 809.69,266.90 810.30,269.28 810.91,258.66 811.51,239.04 812.12,217.85 812.72,203.14 813.33,200.50 813.93,210.95 814.54,230.55 815.14,251.87 815.75,266.82 816.36,269.71 816.96,259.42 817.57,239.84 818.17,218.39 818.78,203.21 819.38,200.08 819.99,210.21 820.59,229.77 821.20,251.35 821.81,266.75 822.41,270.12 823.02,260.14 823.62,240.60 824.23,218.89 824.83,203.27 825.44,199.68 826.04,209.51 826.65,229.04 827.26,250.87 827.86,266.71 828.47,270.51 829.07,260.82 829.68,241.30 830.28,219.34 830.89,203.31 831.49,199.30 832.10,208.85 832.71,228.37 833.31,250.44 833.92,266.67 834.52,270.89 835.13,261.45 835.73,241.94 836.34,219.76 836.94,203.33 837.55,198.93 838.16,208.24 838.76,227.75 839.37,250.05 839.97,266.66 840.58,271.24 841.18,262.04 841.79,242.53 842.39,220.13 843.00,203.34 843.61,198.58 844.21,207.68 844.82,227.19 845.42,249.70 846.03,266.65 846.63,271.58 847.24,262.58 847.84,243.07 848.45,220.45 849.06,203.34 849.66,198.26 850.27,207.16 850.87,226.68 851.48,249.40 852.08,266.67 852.69,271.89 853.29,263.08 853.90,243.55 854.51,220.73 855.11,203.32 855.72,197.95 856.32,206.69 856.93,226.23 857.53,249.14 858.14,266.69 858.74,272.19 859.35,263.52 859.96,243.97 860.56,220.97 861.17,203.29 861.77,197.67 862.38,206.27 862.98,225.83 863.59,248.92 864.19,266.73 864.80,272.46 865.41,263.92 866.01,244.34 866.62,221.17 867.22,203.25 867.83,197.40 868.43,205.89 869.04,225.49 869.64,248.74 870.25,266.78 870.86,272.72 871.46,264.28 872.07,244.66 872.67,221.33 873.28,203.19 873.88,197.16 874.49,205.56 875.09,225.20 875.70,248.60 876.31,266.84 876.91,272.95 877.52,264.59 878.12,244.93 878.73,221.45 879.33,203.12 879.94,196.94 880.54,205.27 881.15,224.96 881.76,248.50 882.36,266.91 882.97,273.17 883.57,264.86 884.18,245.14 884.78,221.53 885.39,203.04 885.99,196.73 886.60,205.02 887.21,224.77 887.81,248.44 888.42,267.00 889.02,273.36 889.63,265.08 890.23,245.31 890.84,221.58 891.44,202.95 892.05,196.55 892.66,204.82 893.26,224.63 893.87,248.41 894.47,267.09 895.08,273.53 895.68,265.26 896.29,245.43 896.89,221.59 897.50,202.86 898.11,196.38 898.71,204.66 899.32,224.53 899.92,248.41 900.53,267.19 901.13,273.69 901.74,265.41 902.34,245.50 902.95,221.57 903.56,202.75 904.16,196.24 904.77,204.53 905.37,224.47 905.98,248.45 906.58,267.30 907.19,273.82 907.79,265.51 908.40,245.53 909.01,221.52 909.61,202.64 910.22,196.11 910.82,204.44 911.43,224.46 912.03,248.52 912.64,267.42 913.24,273.94 913.85,265.59 914.46,245.53 915.06,221.44 915.67,202.52 916.27,196.00 916.88,204.39 917.48,224.48 918.09,248.61 918.69,267.54 919.30,274.05 919.91,265.63 920.51,245.49 921.12,221.33 921.72,202.39 922.33,195.90 922.93,204.36 923.54,224.54 924.14,248.72 924.75,267.67 925.36,274.13 925.96,265.64 926.57,245.42 927.17,221.21 927.78,202.26 928.38,195.82 928.99,204.37 929.59,224.63 930.20,248.86 930.81,267.80 931.41,274.21 932.02,265.62 932.62,245.32 933.23,221.06 933.83,202.13 934.44,195.76 935.04,204.40 935.65,224.74 936.26,249.02 936.86,267.94 937.47,274.27 938.07,265.58 938.68,245.19 939.28,220.90 939.89,201.99 940.49,195.70 941.10,204.45 941.71,224.88 942.31,249.19 942.92,268.08 943.52,274.32 944.13,265.52 944.73,245.04 945.34,220.72 945.94,201.85 946.55,195.66 947.16,204.52 947.76,225.04 948.37,249.37 948.97,268.21 949.58,274.35 950.18,265.44 950.79,244.87 951.39,220.53 952.00,201.71 952.61,195.63 953.21,204.61 953.82,225.21 954.42,249.57 955.03,268.35 955.63,274.38 956.24,265.34 956.84,244.69 957.45,220.33 958.06,201.58 958.66,195.61 959.27,204.71 959.87,225.40 960.48,249.77 961.08,268.49 961.69,274.40 962.29,265.23 962.90,244.50 963.51,220.13 964.11,201.44 964.72,195.59 965.32,204.82 965.93,225.59 966.53,249.97 967.14,268.62 967.74,274.41 968.35,265.12 968.96,244.30 969.56,219.93 970.17,201.31 970.77,195.59 971.38,204.94 971.98,225.79 972.59,250.17 973.19,268.75 973.80,274.41 974.41,265.00 975.01,244.10 975.62,219.72 976.22,201.19 976.83,195.59 977.43,205.06 978.04,225.99 978.64,250.37 979.25,268.87 979.86,274.41 980.46,264.87 981.07,243.90 981.67,219.53 982.28,201.07 982.88,195.59 983.49,205.19 984.09,226.19 984.70,250.57 985.31,268.99 985.91,274.40 986.52,264.75 987.12,243.71 987.73,219.34 988.33,200.95 988.94,195.60 989.54,205.31 990.15,226.38 990.76,250.75 991.36,269.10 991.97,274.40 992.57,264.62 993.18,243.52 993.78,219.16 994.39,200.85 994.99,195.61 995.60,205.43 996.21,226.57 996.81,250.93 997.42,269.20 998.02,274.38 998.63,264.51 999.23,243.35 999.84,218.99 1000.44,200.76 1001.05,195.62 1001.66,205.54 1002.26,226.73 1002.87,251.09 1003.47,269.28 1004.08,274.37 1004.68,264.40 1005.29,243.19 1005.89,218.84 1006.50,200.67 1007.11,195.63 1007.71,205.65 1008.32,226.89 1008.92,251.23 1009.53,269.36 1010.13,274.36 1010.74,264.30 1011.34,243.04 1011.95,218.71 1012.56,200.60 1013.16,195.65 1013.77,205.74 1014.37,227.02 1014.98,251.35 1015.58,269.43 1016.19,274.35 1016.79,264.22 1017.40,242.92 1018.01,218.60 1018.61,200.54 1019.22,195.66 1019.82,205.81 1020.43,227.13 1021.03,251.45 1021.64,269.48 1022.24,274.33 1022.85,264.15 1023.46,242.83 1024.06,218.51 1024.67,200.50 1025.27,195.67 1025.88,205.87 1026.48,227.21 1027.09,251.52 1027.69,269.52 1028.30,274.32 1028.91,264.10 1029.51,242.76 1030.12,218.45 1030.72,200.47 1031.33,195.68 1031.93,205.92 1032.54,227.26 1033.14,251.57 1033.75,269.54 1034.36,274.31 1034.96,264.07 1035.57,242.72 1036.17,218.42 1036.78,200.45 1037.38,195.69 1037.99,205.94 1038.59,227.29 1039.20,251.59 1039.81,269.54 1040.41,274.31 1041.02,264.06 1041.62,242.71 1042.23,218.41 1042.83,200.46 1043.44,195.69 1044.04,205.94 1044.65,227.28 1045.26,251.57 1045.86,269.53 1046.47,274.31 1047.07,264.07 1047.68,242.73 1048.28,218.44 1048.89,200.48 1049.49,195.69 1050.10,205.91 1050.71,227.24 1051.31,251.53 1051.92,269.50 1052.52,274.31 1053.13,264.10 1053.73,242.79 1054.34,218.51 1054.94,200.52 1055.55,195.69 1056.16,205.87 1056.76,227.16 1057.37,251.44 1057.97,269.45 1058.58,274.31 1059.18,264.16 1059.79,242.89 1060.39,218.61 1061.00,200.58 1061.61,195.69 1062.21,205.79 1062.82,227.04 1063.42,251.33 1064.03,269.38 1064.63,274.32 1065.24,264.25 1065.84,243.03 1066.45,218.74 1067.06,200.66 1067.66,195.68 1068.27,205.69 1068.87,226.89 1069.48,251.18 1070.08,269.29 1070.69,274.33 1071.29,264.36 1071.90,243.20 1072.51,218.91 1073.11,200.76 1073.72,195.66 1074.32,205.57 1074.93,226.70 1075.53,250.99 1076.14,269.18 1076.74,274.34 1077.35,264.50 1077.96,243.41 1078.56,219.12 1079.17,200.88 1079.77,195.65 1080.38,205.42 1080.98,226.46 1081.59,250.76 1082.19,269.05 1082.80,274.36 1083.41,264.67 1084.01,243.67 1084.62,219.36 1085.22,201.02 1085.83,195.63 1086.43,205.24 1087.04,226.19 1087.64,250.49 1088.25,268.90 1088.86,274.38 1089.46,264.86 1090.07,243.96 1090.67,219.65 1091.28,201.19 1091.88,195.61 1092.49,205.03 1093.09,225.87 1093.70,250.19 1094.31,268.72 1094.91,274.40 1095.52,265.08 1096.12,244.29 1096.73,219.97 1097.33,201.37 1097.94,195.58 1098.54,204.80 1099.15,225.52 1099.76,249.85 1100.36,268.52 1100.97,274.43 1101.57,265.32 1102.18,244.67 1102.78,220.33 1103.39,201.58 1103.99,195.55 1104.60,204.54 1105.21,225.13 1105.81,249.47 1106.42,268.30 1107.02,274.46 1107.63,265.59 1108.23,245.08 1108.84,220.73 1109.44,201.81 1110.05,195.52 1110.66,204.26 1111.26,224.70 1111.87,249.05 1112.47,268.06 1113.08,274.49 1113.68,265.89 1114.29,245.53 1114.89,221.17 1115.50,202.06 1116.11,195.49 1116.71,203.95 1117.32,224.23 1117.92,248.60 1118.53,267.80 1119.13,274.52 1119.74,266.21 1120.34,246.02 1120.95,221.64 1121.56,202.33 1122.16,195.46 1122.77,203.62 1123.37,223.72 1123.98,248.11 1124.58,267.52 1125.19,274.56 1125.79,266.55 1126.40,246.54 1127.01,222.14 1127.61,202.63 1128.22,195.42 1128.82,203.26 1129.43,223.18 1130.03,247.59 1130.64,267.22 1131.24,274.60 1131.85,266.92 1132.46,247.10 1133.06,222.68 1133.67,202.94 1134.27,195.38 1134.88,202.89 1135.48,222.60 1136.09,247.03 1136.69,266.89 1137.30,274.63 1137.91,267.30 1138.51,247.69 1139.12,223.25 1139.72,203.27 1140.33,195.35 1140.93,202.49 1141.54,222.00 1142.14,246.45 1142.75,266.55 1143.36,274.67 1143.96,267.71 1144.57,248.32 1145.17,223.86 1145.78,203.62 1146.38,195.31 1146.99,202.08 1147.59,221.36 1148.20,245.83 1148.81,266.19 1149.41,274.71 1150.02,268.13 1150.62,248.97 1151.23,224.49 1151.83,203.99 1152.44,195.27 1153.04,201.65 1153.65,220.69 1154.26,245.19 1154.86,265.81 1155.47,274.74 1156.07,268.57 1156.68,249.64 1157.28,225.14 1157.89,204.38 1158.49,195.24 1159.10,201.20 1159.71,220.00 1160.31,244.51 1160.92,265.42 1161.52,274.78 1162.13,269.03 1162.73,250.35 1163.34,225.83 1163.94,204.78 1164.55,195.20 1165.16,200.74 1165.76,219.29 1166.37,243.82 1166.97,265.01 1167.58,274.81 1168.18,269.49 1168.79,251.07 1169.39,226.53"/>
<text x="600.0" y="474" text-anchor="middle" font-size="14" font-family="Arial" fill="#111827">Time Within Selected Window (s)</text>
<text x="18" y="240.0" text-anchor="middle" font-size="14" font-family="Arial" fill="#111827" transform="rotate(-90 18 240.0)">ADC</text>
</svg>